/* XPM */
static char * beacon_xpm[] = {
"17 16 21 1",
" 	c None",
".	c #170625",
"+	c #8F3734",
"@	c #C52E29",
"#	c #DF433C",
"$	c #F16B33",
"%	c #F16C35",
"&	c #FCA245",
"*	c #FFCC52",
"=	c #E84E28",
"-	c #F78A2E",
";	c #FFCB53",
">	c #F7892E",
",	c #FCA045",
"'	c #E74D27",
")	c #FCA144",
"!	c #C62F29",
"~	c #1C1030",
"{	c #E0453C",
"]	c #E74E28",
"^	c #F16C33",
"                 ",
"                 ",
"    .....        ",
"   .+@@#@.       ",
"  .$%&*==@.      ",
"  .+==-;#=.      ",
" .$>,>'>;#+..    ",
" .@+.,-=)+@!@.   ",
" .+.~.,@$)@{]@.  ",
"  .  .$+$%$-,{@. ",
"     .$=+@'=;-{+.",
"      .$>;;-=,-=.",
"       ....;-@-. ",
"           .>>.  ",
"            .^.  ",
"             .   "};
