/* XPM */
static char * chicken?_xpm[] = {
"16 15 23 1",
" 	c None",
".	c #1C1030",
"+	c #BC6A57",
"@	c #170625",
"#	c #E6A283",
"$	c #A22719",
"%	c #C4391C",
"&	c #63121A",
"*	c #DA5A25",
"=	c #F47225",
"-	c #F47325",
";	c #A12619",
">	c #FF9137",
",	c #F47327",
"'	c #FF9036",
")	c #FFD674",
"!	c #FFBB5C",
"~	c #CC5325",
"{	c #7D1616",
"]	c #FF9037",
"^	c #C53A1C",
"/	c #C43A1C",
"(	c #A12617",
"                ",
"       .     .  ",
"      .+@   @#@ ",
"      @+#. @@+#@",
"     @$%&@@%+@@ ",
"    @*=-@;*>$@  ",
"@  @%,')&%!*@   ",
"@@&%~*=>{*>%@   ",
"@{$~-@%*];^$@   ",
"@$/*~&@%*^({@   ",
"@%$%%{*&%({@    ",
"@%@(%&%{${@     ",
"@$~&$@$${@      ",
" @@&$%@{@       ",
"   @@@@@        "};
