/* XPM */
static char * Pie_xpm[] = {
"16 17 15 1",
" 	c None",
".	c #170625",
"+	c #D3633B",
"@	c #DD8646",
"#	c #D1551A",
"$	c #EC9A5D",
"%	c #FDBF78",
"&	c #FFEBA7",
"*	c #F4B66A",
"=	c #FFFEE6",
"-	c #FFF548",
";	c #FFD91C",
">	c #FFBE1B",
",	c #FFB916",
"'	c #FFBE62",
"                ",
"                ",
"                ",
"     . .  ..    ",
"   ..+.+..@#.   ",
"  .+.$+$$%+@#.  ",
"  .$%+%%+%&$*#. ",
" .%&=%&==&=&$@#.",
".=============@.",
".---;->;>>;;,,*.",
".-;--;->;;;>;,*.",
".-----;;;;,;,,@.",
".@***'''''***@. ",
" ........@....  ",
"         . .@.  ",
"            .   ",
"                "};
