/* XPM */
static char * Pig_xpm[] = {
"16 16 24 1",
" 	c None",
".	c #170625",
"+	c #E55144",
"@	c #AD3038",
"#	c #C1403C",
"$	c #DC584B",
"%	c #F37665",
"&	c #8F1E2F",
"*	c #E38B6B",
"=	c #FF937E",
"-	c #791C2F",
";	c #D25651",
">	c #E39A6E",
",	c #E6B37D",
"'	c #FFE6A0",
")	c #E0805F",
"!	c #DF6D56",
"~	c #DB584A",
"{	c #CD8C7E",
"]	c #58000E",
"^	c #990719",
"/	c #BE0A1B",
"(	c #EC162B",
"_	c #FF5863",
"...   ....   ...",
".+@. .@#$#. .@+.",
".%&#.&#$*$#.#&%.",
" .=&&@@#$#@&&=. ",
"  .-@-@@#@-@-.  ",
"  .#-.-##-.-#.  ",
" .&#;->,',-;#@. ",
" .&@&)!))),&#;. ",
" .@&~!.!!.!>&#. ",
".&@&#!&~)&!~&@&.",
".&-&@#!#~)~#&-#.",
".&@.-@##@##-.@&.",
".-&-.{]^/]{.-&-.",
" .-&]^/(_/^]&-. ",
"  ..&]^/(^]&..  ",
"    ..{]]{..    "};
