/* XPM */
static char * Pumpkinpie_xpm[] = {
"17 17 17 1",
" 	c None",
".	c #473042",
"+	c #F4F8EE",
"@	c #170625",
"#	c #DED1CB",
"$	c #DEDFE4",
"%	c #DD8646",
"&	c #D1551A",
"*	c #740D12",
"=	c #B59E9F",
"-	c #B9A9B5",
";	c #96070E",
">	c #F4B66A",
",	c #A5210E",
"'	c #C84913",
")	c #DC621C",
"!	c #B93C0E",
"                 ",
"       .         ",
"      .+.        ",
"       .+. @@    ",
"      .#+$.%&@   ",
"     .#+#+$*%&@  ",
"    @@=#+$-;*>&@ ",
"  @@,;*=--;,;*%&@",
" @,,,,;;;;,,,;*%@",
" @''&&)&)&&'&!!>@",
" @'&&)&'&)&&)'!>@",
" @!'&')))&)'!&!%@",
" @%>>>>>>>>>>>%@ ",
"  @@@@@@@@@@%@@  ",
"            @@>@ ",
"              @  ",
"                 "};
