/* XPM */
static char * Sausage_xpm[] = {
"16 16 28 1",
" 	c None",
".	c #170625",
"+	c #B7704C",
"@	c #943A2E",
"#	c #A53828",
"$	c #E5B88F",
"%	c #D19469",
"&	c #FFF5BF",
"*	c #EFD1A5",
"=	c #BA5338",
"-	c #AD422E",
";	c #BD5F3E",
">	c #D27750",
",	c #F7B177",
"'	c #81020E",
")	c #A5030E",
"!	c #CC382B",
"~	c #DD895B",
"{	c #D0271B",
"]	c #E66751",
"^	c #E7756D",
"/	c #E5624C",
"(	c #FB4D3E",
"_	c #DB452E",
":	c #FFA289",
"<	c #D43C37",
"[	c #B5180F",
"}	c #E7745E",
"          .+..  ",
"       ...@#$+. ",
"      .%$&*&=-*.",
"     .+##*-#*;$.",
"    .+%$*%&>#&@+",
"   .+#-=-#%&-*@.",
"  .==>,;>-#%*&@.",
" .=')!!,~>-*#$. ",
".='{!!]),;=$@%. ",
".){)^]!]),-%+.  ",
".{/(_:]<)>@+.   ",
".[_}:){(<=+.    ",
"._/)^_}))=.     ",
" .)_[<<'=.      ",
"  .)_)'=.       ",
"   .....        "};
