/* XPM */
static char * steak_xpm[] = {
"16 16 26 1",
" 	c None",
".	c #170625",
"+	c #ED7537",
"@	c #FFB66C",
"#	c #AE3C2F",
"$	c #CC846C",
"%	c #C9532E",
"&	c #A52E20",
"*	c #FFB66B",
"=	c #E6A383",
"-	c #EDC0AB",
";	c #902A1C",
">	c #FFE37F",
",	c #C9532D",
"'	c #BE3A28",
")	c #912B1E",
"!	c #731221",
"~	c #FF904A",
"{	c #DB6437",
"]	c #B76651",
"^	c #DC5D25",
"/	c #CE4F1E",
"(	c #DD5E25",
"_	c #FF914B",
":	c #C03B28",
"<	c #EF7637",
"       ...      ",
"      .+@+.     ",
"  ....#$+%&.    ",
" .*+$==-%&;.    ",
".>#,,'&$&#'&.   ",
".*)#'#)!$;!!!.  ",
".~'%{{%'&$&'&&. ",
".+!)''#;!!]#!!. ",
".^+#%,,{%%']#,&.",
"./^+;''#'#!;!)!.",
" ./(+_*#''%%:%'.",
"  ../((**>#';'*.",
"    .../(+>>*_<.",
"       ...(+<^#.",
"          ..... ",
"          ..    "};
