/* XPM */
static char *Cartoon_grass_50[] = {
/* columns rows colors chars-per-pixel */
"50 50 221 2",
"   c #8BAB00",
".  c #8BAC00",
"X  c #8BB200",
"o  c #8BB300",
"O  c #8BB400",
"+  c #8CB100",
"@  c #8CB200",
"#  c #8CB300",
"$  c #8CB400",
"%  c #8CB500",
"&  c #8CB600",
"*  c #8CB700",
"=  c #8DB600",
"-  c #8DB700",
";  c #8EB700",
":  c #8FB700",
">  c #8CB800",
",  c #8CB900",
"<  c #8DB800",
"1  c #8DB900",
"2  c #8DBA00",
"3  c #8DBB00",
"4  c #8EB800",
"5  c #8EB900",
"6  c #8EBA00",
"7  c #8EBB00",
"8  c #8FBA00",
"9  c #8FBB00",
"0  c #8DBC00",
"q  c #8DBD00",
"w  c #8DBE00",
"e  c #8EBC00",
"r  c #8EBD00",
"t  c #8FBC00",
"y  c #8FBD00",
"u  c #8EBE00",
"i  c #8EBF00",
"p  c #8FBE00",
"a  c #8FBF00",
"s  c #90B700",
"d  c #90B900",
"f  c #91B800",
"g  c #91B900",
"h  c #90BA00",
"j  c #93B900",
"k  c #93BA00",
"l  c #93BB00",
"z  c #90BC00",
"x  c #90BD00",
"c  c #91BC00",
"v  c #91BD00",
"b  c #90BE00",
"n  c #90BF00",
"m  c #91BE00",
"M  c #91BF00",
"N  c #92BC00",
"B  c #92BD00",
"V  c #93BC00",
"C  c #93BD00",
"Z  c #92BE00",
"A  c #92BF00",
"S  c #93BE00",
"D  c #93BF00",
"F  c #94BA00",
"G  c #94BC00",
"H  c #94BF00",
"J  c #97BD00",
"K  c #96BF00",
"L  c #97BF00",
"P  c #98BF00",
"I  c #8EC000",
"U  c #8EC100",
"Y  c #8FC000",
"T  c #8FC100",
"R  c #8EC200",
"E  c #8EC300",
"W  c #8FC200",
"Q  c #8FC300",
"!  c #90C000",
"~  c #90C100",
"^  c #91C000",
"/  c #91C100",
"(  c #90C200",
")  c #90C300",
"_  c #91C200",
"`  c #91C300",
"'  c #92C000",
"]  c #92C100",
"[  c #93C000",
"{  c #93C100",
"}  c #92C200",
"|  c #92C300",
" . c #93C200",
".. c #93C300",
"X. c #90C400",
"o. c #91C400",
"O. c #91C500",
"+. c #92C400",
"@. c #92C500",
"#. c #93C400",
"$. c #93C500",
"%. c #93C600",
"&. c #94C000",
"*. c #94C100",
"=. c #95C000",
"-. c #95C100",
";. c #94C200",
":. c #94C300",
">. c #95C300",
",. c #96C000",
"<. c #96C100",
"1. c #97C000",
"2. c #97C100",
"3. c #96C200",
"4. c #96C300",
"5. c #97C200",
"6. c #97C300",
"7. c #94C400",
"8. c #94C500",
"9. c #95C400",
"0. c #95C500",
"q. c #94C600",
"w. c #94C700",
"e. c #95C600",
"r. c #95C700",
"t. c #96C400",
"y. c #96C500",
"u. c #97C400",
"i. c #97C500",
"p. c #96C600",
"a. c #96C700",
"s. c #97C600",
"d. c #97C700",
"f. c #95C800",
"g. c #96C800",
"h. c #97C800",
"j. c #97C900",
"k. c #98C000",
"l. c #98C100",
"z. c #98C200",
"x. c #98C300",
"c. c #99C300",
"v. c #9AC200",
"b. c #98C400",
"n. c #98C500",
"m. c #99C400",
"M. c #99C500",
"N. c #98C600",
"B. c #98C700",
"V. c #99C600",
"C. c #99C700",
"Z. c #9AC400",
"A. c #9BC500",
"S. c #9AC600",
"D. c #9AC700",
"F. c #9BC600",
"G. c #9BC700",
"H. c #9CC600",
"J. c #9CC700",
"K. c #9EC700",
"L. c #98C800",
"P. c #98C900",
"I. c #99C800",
"U. c #99C900",
"Y. c #98CA00",
"T. c #99CA00",
"R. c #9AC800",
"E. c #9AC900",
"W. c #9BC800",
"Q. c #9BC900",
"!. c #9ACA00",
"~. c #9ACB00",
"^. c #9BCA00",
"/. c #9BCB00",
"(. c #9CC800",
"). c #9DC800",
"_. c #9DC900",
"`. c #9CCA00",
"'. c #9CCB00",
"]. c #9DCA00",
"[. c #9DCB00",
"{. c #9EC900",
"}. c #9FC800",
"|. c #9FC900",
" X c #9ECA00",
".X c #9ECB00",
"XX c #9FCA00",
"oX c #9FCB00",
"OX c #9CCC00",
"+X c #9DCC00",
"@X c #9ECC00",
"#X c #9ECD00",
"$X c #9FCC00",
"%X c #9FCD00",
"&X c #A1C900",
"*X c #A0CA00",
"=X c #A0CB00",
"-X c #A2CB00",
";X c #A0CC00",
":X c #A0CD00",
">X c #A0CE00",
",X c #A1CE00",
"<X c #A1CF00",
"1X c #A2CD00",
"2X c #A3CD00",
"3X c #A2CE00",
"4X c #A2CF00",
"5X c #A3CF00",
"6X c #A4CE00",
"7X c #A4CF00",
"8X c #A5CE00",
"9X c #A5CF00",
"0X c #A6CF00",
"qX c #A8CF00",
"wX c #A4D000",
"eX c #A5D000",
"rX c #A5D100",
"tX c #A6D000",
"yX c #A6D100",
"uX c #A7D100",
"iX c #A9D200",
/* pixels */
"i i Y.<.i @.@.f.f.f.Y.f.w.f.f.f.Q Q Q Q Q Q @.@.t.Y.x i Q Q Q Q Q f.f.f.f.Y.@.Y.Q.] @.t.w.Q Q w.w.@.",
"Q @.f.] @.Q i @.w.w.f.f.f.f.Q Q Q Q Q Q Q @.f.f.Y.7X@.] Q Q Q Q Q @.f.Q t.@.f.Y.t.OXtX<.i Q Q Q Q i ",
"@.Q f.f.] x Q Q Q @.w.Q @.Q Q Q Q t.@.@.Q Q Q Q t.] i OX] Y.@.Q Q Q @.i Q Q f.@.f.f.Y.t.i Q Q Q Q Q ",
"Q @.f.f.f.@.Q Q Q Q Q Q Q Q Q @.] t.Y.Y.Q Q Q Q i Q f.f.t.t.* Q Q Q Q t.@.Q Q Q f.f.f.] Q Q Q Q Q Q ",
"i Q @.@.t.2.i Q Q y , , y @.@.@.f.f.Y.] y i Q Q Q Q f.f.f.t.Y.OXQ Q Q @.Q Q Q Q @.@.i Q Q Q ] Q i t.",
"@.t.y @.N.y Q Q Q i y w y @.@.@.f.Y.OX] f.Q Q Q Q Q w.f.f.@.V * i t.f.@.w.Q Q Q i @.Q Q Q @.<.Y.] Y.",
"f.N.* i Q Q Q Q Q Q Q Q y Q w.f.f.f.t.N.* y w , * y i @.f.t.] Q i >Xt.w.Q Q w & & & & * Q f.w.w.f.f.",
"] ] i * O O O * Q f.f.w.Q Q @.f.OX@.@.N.] i , , w y @.w.f.Y.OXQ @.>XY.f.f.Q y , & & , i Q Q i @.@.@.",
"@.F.i y y y w Q Q @.Y.Y.Y.] Q Q Q ] ] y Q Q Q i U i @.f.t.<.tXi Q y @.i i Q Q Q Q Q t.] @.Y.t.N.Q Q ",
"@.i @.Q Q f.Q w.f.f.f.f.<.@.Q Q Q Q i x ] ] @.<.Q Q @.Q.,Xi y Q Q Q i , tXQ Q @.>Xi f.t.t.f.OX] Q @.",
"t.f.f.f.i f.f.] Y.f.Q.] ] i Q Q Q i f.t.f.t.w.Y.t.Q Q i t.Q Q i x t.@.V Y.@.Q Q t.t.f.@.f.f.<.i @.f.",
"Q f.OXf.@.Y.f.y N.f.<.OXi i Q Q Q Q f.f.Q w.f.f.Y.t.Q Q Q Q Q i <.N.,Xf.f.@.Q Q Q w.@.@.Q w.Y.i i Q ",
"] Y.Y.Y.] Y.Y.] y <.t.x Q.] i @.Q Q w.Q @.Q t.@.i i y * * i i iXY.f.f.OXf.i y y * * * y * * i Q Q Q ",
"i OXt.Q.x N.Y.i Q i Y.OXY.f.f.>XQ f.Q Q i f.x Q Q i y y y y i t.OXf.f.f.@.& & * & & & & & & * i Q Q ",
"Q y y y i x y i Q i Q Y.f.f.@.f.t.,XQ f.* Y.y y w.Y.O O O O ] ,Xf.@.w.w.i Q Q i y * j @.f.@.f.f.f.t.",
"f.@.@.i f.@.y y y y i #Xf.f.@.f.w.@.@.Y.Y.] @.t.Y.2.O O O O i Q @.Q Q Q Q Q i O O s Y.t.f.f.f.f.#X>X",
"f.f.@.t.f.F.O O O O * x @.@.i ] w.Q Q OX>XY.f.f.t.f.OXV O * @.Q @.i @.Q w.@.y & & & X V Y.@.i t.n %X",
"@.Y.<.Y.f.OXx O O O V N.i ] <.t.i Q @.f.f.f.f.@.f.f.x , * i y y i f.f.f.Y.OX] * & X O x ] * * Y.I Q ",
"@.f.* * =XV 2.j O O Y.Y.] f.Y.OX] Q i Q Q @.@.Q @.i i Q i w , w f.Y.f.f.Y.tX] y . . . * * @.<.@.Q Q ",
"@.@.] * @ N.x Y.N.y Y.Y.@.f.Y.f.Q Q Q Q Q i @.t.Q Q w.w.Q Q i Q f.f.,Xf.t.] i i * * * <.Y.f.f.@.Q a.",
"N.i @.i ] x Y.f.Y.t.@.f.Q w.f.w.Q Q ] t.@.Q <.f.f.t.f.@.Y.@.Q Q Y.2.] t.] i Q Q N.] i Q ] Q.w.t.a.8.",
"i Q i @.F.Y.Y.t.t.@.@.@.Q i Q Q i @.f.w.Q i OXf.f.] Y.Q t.@.Q Q OXO i Q Q Q x y Y.OX@.Q i ] @.i Q I ",
"Q Q Q Q f.f.f.w.Q Q * * , & , y Q t.i Q Q @.@.t.Q i @.i Q Q Q Q @.@.t.Q.@.i >XQ.N.f.@.Q Q @.t.<.n 8.",
"j.w.Q Q Q Q @.@.Q Q i y , w y Q i t.t.f.f.f.@.@.Q Q , , & y Q Q @.t.N.Q.@.Q f.w.Y.@.] Q i * t.@.~.~.",
"@.w.Q Q Q Q Q Q Q Q Q y t.Q Q Q i t.f.t.t.N.t.w.Q Q i y y i Q Q @.@.f.f.Q * j ] @.f.w.Q i Y.@.,Xa.a.",
"@.w.Q U , , , , Q Q Q t.t.@.Q Q Q Q i t.i Q i i Q Q ] @.@.Q Q Q Q f.Q Q @.Y.OX<.f.f.f.Q Q y t.f.a.o.",
"Q Q Q i w w y i Q i Q i f.f.f.@.Q Q Q Q Q Q , X O ] Y.Y.f.Q Q Q Q t.Q i i Q i t.f.Y.f.Q Q @.Y.t.8.I ",
"Q Q Q @.@.@.f.w.@.Q Q ] ] t.f.w.Q Q Q Q Q Q y , * 2.Q.f.f.w.f.w.@.Q w.@.Q Q i ] y t.i ] @.Q @.Q 8.Q ",
"Q @.w.f.@.f.f.Y.f.f.Q @.i x f.@.Q Q Q i @.@.i i ] @.Y.Y.N.Y.f.t.f.t.@.Y.i y @ X X @ y Q.f.f.@.Q Q Q ",
"@.Y.f.t.Q ,XOXw.Y.,XOXY.Q w.t.Q Q Q N.Y.Y.t.f.@.f.f.] i tXOX@.N.f.f.OXOXf.y O O @ * ] Q.f.t.@.i Q Q ",
"i f.f.i Q @.@.i Q @.Q Q Q @.t.t.x Q.] V N.N.N.OXN.Y.Q Q i Q i <.@.Y.=XY.f.Q Q Q @.i @.@.Q f.@.Q Q Y.",
"f.<.y Q Q Q Q Q Q Q Q Q i f.t.t.f.t.Y.Q.N.@.y y * * , y y Q Q i y Q.x i @.@.i t.f.@.f.@.@.@.Q i t.Y.",
"t.t.OXY.Q Q Q Q Q Q i Q Q @.i @.o.o.o.n I 2 O O O O O O q a.a.a.Q Q Q I 8.8.n _.a.o.~.n %XQ Q Q a.a.",
"@.] y * Q Q Q Q Q Q f.] @.f.t.N.o.o.a.D.I I I q q q I Q o.o././.%Xo.I D.o.Q 8.8.~.o.8.Q I Q Q Q %.a.",
"f.Y.Y.i Q Q Q @.OX] f.t.f.f.Y.] o.8.8.Q Q o.%.o.Q a.a.o.8.a.~.n n N I 8.%.%.8.o.I Q Q I & O & I o.%.",
"t.N.tXQ Q Q Q Q @.@.f.@.@.Y.N.i Q Q I Q Q a./.a.o.a.a.N ~.8.~._.q I n 8.n D.D.8.o.Q Q Q I I I Q %.a.",
"OX] y i i i w i Q w.i ] ] Q Q Q I Q Q Q I ~.~./.o.~./.n I D.&.n ~.I Q Q o.8.o.o.I N o.n o.&.o.I I _.",
"<.Q * & & & & i Q Q i @.w.Q w.f.8.o.Q Q I ~.o._.q a._.q I I 8.%Xa.~.o.wXQ a.Q I ~.8.~.8.a.~.&.Q Q Q ",
"Q Q i * , * y i i i Y.Y.@.f.f.f.~.wXQ Q o.q n q o.I q Q I Q Q a.~.a.o.a.8.%Xo.Q o.a.Q o.a.a.~.n Q Q ",
"Q Q Q Q i i , , * @.Y.t.Y.f.@.@.%XD.o.n a.o.%.o.a.~.o.I Q I Q /.a.o.o.a.a.o.Q Q o.I Q a.n o.Q Q Q Q ",
"Q Q @.@.t.Y.Q Q Q Q i Y.Y.t.i t.q ~.I a.~.%.%.a.a.~.Q q & & O 2 i i y y @.Q Q Q Q o.q ~.2 o.o.a.I I ",
"Q f.f.f.Y.Q.@.i i y i @.@.i y Y.I I Q wXo./.a.a.a./.a.I Q I N ~.i <.<.N.i Q Q Q Q _.8.8.n a.~.D.I o.",
"f.Y.f.f.Y.tX@.& X X * Q Q Q ] t.Q Q o.Q Q a.o.o.wX8._.N I I ~.~.i Y.Y.OXi Q Q Q Q %X%Xa.a.a.o.~.%Xn ",
"f.Y.>X<.N.N.i Q i y i ] t.f.f.Q Q %.a.o.Q Q Q Q I 5.2 ~.&.I /./.@.f.OXf.@.Q Q Q Q o.a.a.a.n 8.8.o.Q ",
"f.<.t.OX] i Q i Q Q * * x OX@.f.o.8.~.I Q Q Q I q 8.%X8./.n a.a.@.f.Y.f.o.Q Q Q Q Q Q & O , Q Q Q Q ",
"tXx Q i w y y w i i O & j 2.f.V H g &.I Q Q Q I N n 8.~.a.a.o.a.i Q f.@.Q Q Q Q Q I Q I q I Q I Q Q ",
"w.* Q i , & & & O y y & & j * O O 2 q I Q Q o.o.%X/.~.o.%.o.Q o.Q Q Q Q I Q Q q q 2 q I q + O I Q Q ",
"Q Q Q @.Q Q i i i i Q i * * * * I Q q I Q Q o.8.o.a.a.a.Q Q Q Q Q Q ] ,Xq n Q I 2 2 I Q n I I o._.N ",
"i Q i Q Q Q @.Q I q I Q Q Q a.I Q Q Q Q Q Q %.8.I o.o.o.o.Q Q Q @.Q.N.Q.<.<.Q Q I Q Q a._._._.a.~.5.",
"OXQ @.f.Q Y.OXtX/.o.%XwXo.OX~.~.Q Q Q Q Q o.8.o.8.~.Q o.Q Q Q Q ~.OX>XY.t.N.I OXiXq o.~.a.o.a.o.8.~."
};
