/* XPM */
static char *Golden_Pumpkin[] = {
/* columns rows colors chars-per-pixel */
"50 50 167 2",
"   c black",
".  c #091900",
"X  c #072104",
"o  c #072706",
"O  c #072C08",
"+  c #082706",
"@  c #07360D",
"#  c #2B270D",
"$  c #31230C",
"%  c #3F3B00",
"&  c #034416",
"*  c #064011",
"=  c #024C1B",
"-  c #05531A",
";  c #045C1E",
":  c #005E24",
">  c #67321C",
",  c #753620",
"<  c #7A4316",
"1  c #7F411B",
"2  c #028631",
"3  c #008A35",
"4  c #028E34",
"5  c #009539",
"6  c #00AB41",
"7  c #00B646",
"8  c #814319",
"9  c #824419",
"0  c #874917",
"q  c #894C16",
"w  c #835B04",
"e  c #8E5113",
"r  c #975A0F",
"t  c #935515",
"y  c #905118",
"u  c #9E5E14",
"i  c #976605",
"p  c #9E620C",
"a  c #9F6112",
"s  c #A3660B",
"d  c #A56909",
"f  c #A5680C",
"g  c #AB6F08",
"h  c #A47905",
"j  c #AC7106",
"k  c #AF730D",
"l  c #AF7B02",
"z  c #B17407",
"x  c #B27705",
"c  c #B27508",
"v  c #B2750A",
"b  c #B67D05",
"n  c #B97D04",
"m  c #B97C07",
"M  c #BD8004",
"N  c #BC8304",
"B  c #BD860A",
"V  c #B88B04",
"C  c #BB9204",
"Z  c #BD9404",
"A  c #C08303",
"S  c #C28503",
"D  c #C78708",
"F  c #C08904",
"G  c #C78A03",
"H  c #C78E03",
"J  c #CC8D04",
"K  c #CC8D05",
"L  c #C79100",
"P  c #C79F03",
"I  c #C89003",
"U  c #CB9503",
"Y  c #CC9301",
"T  c #CC9203",
"R  c #CE9002",
"E  c #D19301",
"W  c #D19602",
"Q  c #D29401",
"!  c #D39601",
"~  c #D59601",
"^  c #D59504",
"/  c #D19802",
"(  c #D89901",
")  c #DA9F01",
"_  c #DC9C00",
"`  c #C5A603",
"'  c #CEB803",
"]  c #D3A703",
"[  c #D5A103",
"{  c #D8A402",
"}  c #DAA506",
"|  c #DDA201",
" . c #DFAD02",
".. c #DCAB08",
"X. c #D1BB02",
"o. c #E3A300",
"O. c #E2A700",
"+. c #E5A700",
"@. c #E4AA00",
"#. c #E6A800",
"$. c #E7AA00",
"%. c #E4AE00",
"&. c #E9AE00",
"*. c #EAAE00",
"=. c #E6B505",
"-. c #EDB400",
";. c #EFB700",
":. c #EAB901",
">. c #EBBB01",
",. c #EFBA00",
"<. c #F1BA00",
"1. c #F1BE00",
"2. c #F2BD00",
"3. c #F4BF00",
"4. c #E3B526",
"5. c #E8BA2B",
"6. c #D6C902",
"7. c #DFDB01",
"8. c #DED71C",
"9. c #DFDB11",
"0. c #E9D100",
"q. c #E9D600",
"w. c #EBDC00",
"e. c #F2C700",
"r. c #F4C000",
"t. c #F5C200",
"y. c #F4C500",
"u. c #F7C400",
"i. c #F8C600",
"p. c #F6D100",
"a. c #FED200",
"s. c #FFD200",
"d. c #FDD500",
"f. c #FDD600",
"g. c #FDD700",
"h. c #FED400",
"j. c #FBDD00",
"k. c #FCDD10",
"l. c #F8D42B",
"z. c #FDDD2B",
"x. c #F3E900",
"c. c #F7E800",
"v. c #F6EB00",
"b. c #F5EE00",
"n. c #F9E200",
"m. c #F9E208",
"M. c #F3F300",
"N. c #F1F900",
"B. c #F0FF00",
"V. c #F4F310",
"C. c #F1FF15",
"Z. c #F2FF2B",
"A. c #F3FC38",
"S. c #FDE240",
"D. c #F3FF40",
"F. c #F5FC4B",
"G. c #F5FF56",
"H. c #F5FF66",
"J. c #F6FF6C",
"K. c #E6DB83",
"L. c #F7FF87",
"P. c #FBF381",
"I. c #FAF997",
"U. c #FAFA97",
"Y. c #F8FF97",
"T. c #FAFFAD",
"R. c None",
/* pixels */
"R.R.R.R.R.R.R.R.R.R.R.R.R.R.R.R.R.R.R.R.R.R.R.R.R.R.R.R.R.R.R.R.R.R.R.R.R.R.R.R.R.R.R.R.R.R.R.R.R.R.",
"R.R.R.R.R.R.R.R.R.R.R.R.R.R.R.R.R.R.R.R.R.R.R.R.R.R.R.R.R.R.R.R.R.R.R.R.R.R.R.R.R.R.R.R.R.R.R.R.R.R.",
"R.R.R.R.R.R.R.R.R.R.R.R.R.R.R.R.R.R.R.R.R.R.R.R.R.R.R.R.R.R.R.R.R.R.R.R.R.R.R.R.R.R.R.R.R.R.R.R.R.R.",
"R.R.R.R.R.R.R.R.R.R.R.R.R.R.R.. . . . . . . . . . R.R.R.R.R.R.R.R.R.R.R.R.R.R.R.R.R.R.R.R.R.R.R.R.R.",
"R.R.R.R.R.R.R.R.R.R.R.R.R.R.R.. . . . . . . . . . R.R.R.R.R.R.R.R.R.R.R.R.R.R.R.R.R.R.R.R.R.R.R.R.R.",
"R.R.R.R.R.R.R.R.R.R.R.R.R.R.R.. . . . . . . . . . R.R.R.R.R.R.R.R.R.R.R.R.R.R.R.R.R.R.R.R.R.R.R.R.R.",
"R.R.R.R.R.R.R.R.R.R.R.R.R.R.R.. . . @ 4 4 2 = = = . . . . R.R.R.R.R.R.R.R.R.R.R.R.R.R.R.R.R.R.R.R.R.",
"R.R.R.R.R.R.R.R.R.R.R.R.R.R.R.. . . * 7 7 6 : : : . . . . R.R.R.R.R.R.R.R.R.R.R.R.R.R.R.R.R.R.R.R.R.",
"R.R.R.R.R.R.R.R.R.R.R.R.R.R.R.. . . * 7 7 6 : : : . . . . R.R.R.R.R.R.R.R.R.R.R.R.R.R.R.R.R.R.R.R.R.",
"R.R.R.R.R.R.R.R.R.R.R.R.R.R.R.. . . + - - ; 5 5 5 . . . i j j j R.R.R.R.R.R.R.R.R.R.R.R.R.R.R.R.R.R.",
"R.R.R.R.R.R.R.R.R.R.R.R.R.R.R.R.R.R.. . . O 7 7 7 . . . i j j j R.R.R.R.R.R.R.R.R.R.R.R.R.R.R.R.R.R.",
"R.R.R.R.R.R.R.R.R.R.R.R.R.R.R.R.R.R.. . . O 7 7 7 . . . i j j j R.R.R.R.R.R.R.R.R.R.R.R.R.R.R.R.R.R.",
"R.R.R.R.R.R.R.R.R., , , , , , q j j w . . o 3 3 3 . . . l G G x j j j j j j j j j R.R.R.R.R.R.R.R.R.",
"R.R.R.R.R.R.R.R.R., , , , , , q j j w . . X : : : . . . L o.o.n j j j j j j j j j R.R.R.R.R.R.R.R.R.",
"R.R.R.R.R.R.R.R.R., , , , , , q j j w . . X : : : . . . L o.o.n j j j j j j j j j R.R.R.R.R.R.R.R.R.",
"R.R.R.R.R.R., , , 8 q q t u u k U U h $ $ # & & & $ $ $ Y o.o./ U U P ` ` ` ` ` C j j j R.R.R.R.R.R.",
"R.R.R.R.R.R., , , r j j G o.o.-.s.s..., , > . . . , , , ^ o.o.i.s.s.b.B.B.B.B.B.6.j j j R.R.R.R.R.R.",
"R.R.R.R.R.R., , , u j j G o.o.-.s.s..., , > . . . , , , ^ o.o.i.s.a.b.B.B.B.B.B.6.j j j R.R.R.R.R.R.",
"R.R.R., , , 1 8 8 s n n E &.&.<.i.i.} 8 8 < % % % y y y J ~ ~ ,.t.y.x.B.B.C.Z.Z.8.Z Z V j j j R.R.R.",
"R.R.R., , , p j j Y o.o.,.a.a.t.o.o.~ j j x o.o.o.o.o.o.x j j ~ o.o.w.B.B.G.T.T.J.B.B.7.j j j R.R.R.",
"R.R.R., , , p j j Y o.o.<.s.s.3.o.o.~ j j x o.o.o.o.o.o.x j j ~ o.o.w.B.B.G.T.T.J.B.B.7.j j j R.R.R.",
"R.R.R., , , s x x E #.#.,.s.s.,._ _ E x x n #.#.#.%.%.%.N b n E _ _ q.N.N.F.Y.Y.H.C.C.9.j j j R.R.R.",
"R.R.R., , , D o.o.3.s.s.s.s.s. .j j n o.o.#.s.s.s.B.B.B.g.s.a.F j j %.s.s.c.B.B.D.T.T.K.j j j R.R.R.",
"R.R.R., , , D o.o.3.s.s.s.s.s. .j j n o.o.#.s.s.s.B.B.B.g.s.s.F j j  .s.s.c.B.B.D.T.T.K.j j j R.R.R.",
"R.R.R., , , D o.o.3.s.s.s.s.s.%.j j n o.o.#.s.s.s.B.B.B.g.s.s.F j j %.s.s.c.B.B.D.T.T.K.j j j R.R.R.",
", , , d j j ~ o.o.w.B.B.0.o.o.R j j F s.s.g.B.B.B.T.T.T.C.B.B.Z j j R o.o.<.s.s.S.T.T.P.a.a.y.j j j ",
", , , d j j ~ o.o.w.B.B.0.o.o.J j j F s.s.g.B.B.B.T.T.T.C.B.B.Z j j R o.o.<.s.s.S.T.T.P.a.a.y.j j j ",
", , , d j j ~ o.o.w.B.B.0.o.o.Y j j F s.s.g.B.B.B.T.T.T.C.B.B.Z j j R o.o.<.s.s.S.T.T.P.s.a.y.j j j ",
", , , d j j ~ o.o.w.B.B.X.x x S _ _ #.s.s.a.g.g.g.C.C.C.L.Y.Y.4.| _ S x x { s.s.m.C.C.V.s.s.t.j j j ",
", , , d j j ~ o.o.w.B.B.X.j j N o.o.&.s.s.s.s.s.s.B.B.B.Y.T.T.5.o.o.N j j [ s.s.n.B.B.M.s.s.y.j j j ",
", , , d j j ~ o.o.w.B.B.' j j S o.o.&.a.a.s.s.s.s.B.B.B.Y.T.T.5.o.o.N j j [ s.s.n.B.B.M.a.a.t.j j j ",
", , , d j j ~ o.o.e.j.j.] j j N o.o.&.s.a.a.M.M.M.j.j.j.U.T.T.l.u.u.I j j [ a.a.a.j.j.p.&.&.#.j j j ",
", , , d j j ~ o.o.3.s.s.[ j j N o.o.&.a.a.g.B.B.B.s.s.s.U.T.T.z.s.s.U j j [ s.s.s.s.s.i.o.o._ j j j ",
", , , d j j ~ o.o.3.s.s.[ j j S o.o.&.a.a.g.B.B.B.s.s.s.U.T.T.z.s.s.U j j [ s.s.s.s.s.i.o.o._ j j j ",
", , , 0 q q J o.o.*.-.-.R j j N o.o.&.a.s.a.n.n.n.b.b.b.A.D.D.k.s.s.U j j Y -.-.3.s.s.=.u u u j j j ",
"R.R.R., , , D o.o.o.o.o.G j j S o.o.&.a.s.s.a.a.s.B.B.B.B.B.B.j.s.s.U j j G o.o.-.s.s..., , , R.R.R.",
"R.R.R., , , D o.o.o.o.o.G j j N o.o.&.a.s.s.s.s.s.B.B.B.B.B.B.j.s.s.U j j G o.o.-.s.s..., , , R.R.R.",
"R.R.R., , , v G G ( o.o.G j j S o.o.&.a.s.s.s.s.s.B.B.B.b.c.c.g.s.s.U j j G o.o.| [ [ B , , , R.R.R.",
"R.R.R., , , p j j J o.o.G j j S o.o.&.s.s.s.s.s.s.B.B.B.a.s.s.s.s.s.U j j G o.o.Y j j p , , , R.R.R.",
"R.R.R., , , p j j R o.o.G j j S o.o.&.s.s.s.s.s.s.B.B.B.g.s.s.s.s.s.U j j G o.o.J j j p , , , R.R.R.",
"R.R.R., , , t r r m J R M j j A o.o.#.3.3.t.s.s.s.b.b.b.a.a.a.t.3.3.H j j n Y J m r r q , , , R.R.R.",
"R.R.R.R.R.R., , , r j j j j j A o.o.o.o.o.#.a.a.s.s.a.a.a.a.a.&.o.o.A j j j j j r , , , R.R.R.R.R.R.",
"R.R.R.R.R.R., , , r j j j j j A o.o.o.o.o.#.s.a.s.s.a.a.a.a.a.&.o.o.A j j j j j r , , , R.R.R.R.R.R.",
"R.R.R.R.R.R., , , t p p p p p x ~ ~ _ o.o.#.y.u.u.u.u.u.>.>.:._ ~ ~ x p u s p s t , , , R.R.R.R.R.R.",
"R.R.R.R.R.R.R.R.R., , , , , , 0 j j n o.o.o.o.o.o.o.o.o.x j j j j j 0 , , , , , , R.R.R.R.R.R.R.R.R.",
"R.R.R.R.R.R.R.R.R., , , , , , q j j n o.o.o.o.o.o.o.o.o.x j j j j j q , , , , , , R.R.R.R.R.R.R.R.R.",
"R.R.R.R.R.R.R.R.R., , , , , , 0 d d c ^ ^ ^ ^ ^ ^ ^ ^ ^ g d d d d d 0 , , , , , , R.R.R.R.R.R.R.R.R.",
"R.R.R.R.R.R.R.R.R.R.R.R.R.R.R., , , , , , , , , , , , , , , , , , , , R.R.R.R.R.R.R.R.R.R.R.R.R.R.R.",
"R.R.R.R.R.R.R.R.R.R.R.R.R.R.R., , , , , , , , , , , , , , , , , , , , R.R.R.R.R.R.R.R.R.R.R.R.R.R.R.",
"R.R.R.R.R.R.R.R.R.R.R.R.R.R.R., , , , , , , , , , , , , , , , , , , , R.R.R.R.R.R.R.R.R.R.R.R.R.R.R."
};
