/* XPM */
static char *Prismatic_Shardscl[] = {
/* columns rows colors chars-per-pixel */
"50 50 233 2",
"   c black",
".  c #001B00",
"X  c #001D3C",
"o  c #00270E",
"O  c #002A12",
"+  c #00331C",
"@  c #003B25",
"#  c #393100",
"$  c #000054",
"%  c #000B65",
"&  c #000D68",
"*  c #001372",
"=  c #002D4F",
"-  c #00375E",
";  c #00227B",
":  c #00432E",
">  c #004F36",
",  c #004B38",
"<  c #0F4D31",
"1  c #006A3E",
"2  c #005B4B",
"3  c #125D41",
"4  c #00487A",
"5  c #00654D",
"6  c #006A4E",
"7  c #00704F",
"8  c #007550",
"9  c #177746",
"0  c #107651",
"q  c #006370",
"w  c #07796C",
"e  c #217E4B",
"r  c #4E0000",
"t  c #5A0000",
"y  c #530028",
"u  c #590028",
"i  c #650000",
"p  c #680000",
"a  c #700000",
"s  c #720E00",
"d  c #780000",
"f  c #7E1300",
"g  c #6C002E",
"h  c #760028",
"j  c #7E0035",
"k  c #430051",
"l  c #4F0058",
"z  c #54005B",
"x  c #5D005B",
"c  c #5C0060",
"v  c #620063",
"b  c #6D0062",
"n  c #6C006A",
"m  c #6C0C62",
"M  c #73006B",
"N  c #780066",
"B  c #7A1168",
"V  c #7C5E00",
"C  c #002187",
"Z  c #00268E",
"A  c #002E88",
"S  c #002791",
"D  c #0035A6",
"F  c #003CAC",
"G  c #004C8B",
"H  c #005386",
"J  c #0056B6",
"K  c #005DBC",
"L  c #1A53A3",
"P  c #0058C2",
"I  c #0161C9",
"U  c #0073D7",
"Y  c #007CDF",
"T  c #1A67C1",
"R  c #008553",
"E  c #1B8849",
"W  c #159D67",
"Q  c #208755",
"!  c #2D9F64",
"~  c #33A068",
"^  c #408A58",
"/  c #538C4D",
"(  c #3485BE",
")  c #34A9BD",
"_  c #0A87E3",
"`  c #1FA4C9",
"'  c #2A85D2",
"]  c #3499DD",
"[  c #2AACD0",
"{  c #39A0D2",
"}  c #2AA9EF",
"|  c #3FADE8",
" . c #34C286",
".. c #54CD8B",
"X. c #54E8A6",
"o. c #58EAAA",
"O. c #5EEAB1",
"+. c #6CE9A3",
"@. c #75ECAB",
"#. c #54DCDD",
"$. c #42CDF3",
"%. c #4CCDF3",
"&. c #54D6FF",
"*. c #58DDFF",
"=. c #57E3DD",
"-. c #5BE2FF",
";. c #5FEAFF",
":. c #64C7F0",
">. c #6ACDF3",
",. c #62F6DD",
"<. c #6FF7DF",
"1. c #79FFCD",
"2. c #6AEFFF",
"3. c #6BFFFF",
"4. c #74E5FF",
"5. c #7CFFFF",
"6. c #820000",
"7. c #871900",
"8. c #8C1D00",
"9. c #910000",
"0. c #9F0000",
"q. c #991D00",
"w. c #8B0036",
"e. c #920028",
"r. c #8F3F00",
"t. c #913B00",
"y. c #AA0000",
"u. c #A51D00",
"i. c #BE0000",
"p. c #A70031",
"a. c #B3023A",
"s. c #BD003A",
"d. c #B22201",
"f. c #82006B",
"g. c #8C066F",
"h. c #870070",
"j. c #8E0372",
"k. c #980074",
"l. c #A70B7B",
"z. c #AF117E",
"x. c #936D00",
"c. c #A84F00",
"v. c #A55200",
"b. c #CB0000",
"n. c #CE0901",
"m. c #C11800",
"M. c #D10D0A",
"N. c #C50F3D",
"B. c #D83304",
"V. c #DC3F0C",
"C. c #E20000",
"Z. c #E20A00",
"A. c #E31200",
"S. c #E72000",
"D. c #E52E00",
"F. c #E82502",
"G. c #E92A04",
"H. c #E73506",
"J. c #E93307",
"K. c #DF3C48",
"L. c #CD6400",
"P. c #CB6B01",
"I. c #E74B00",
"U. c #EA4F0A",
"Y. c #F0581F",
"T. c #E37602",
"R. c #E17A02",
"E. c #ED721A",
"W. c #F66034",
"Q. c #E3414F",
"!. c #FF6E54",
"~. c #BE1C85",
"^. c #B22280",
"/. c #B92A87",
"(. c #CC3E9B",
"). c #D72E90",
"_. c #DC3395",
"`. c #E33B9C",
"'. c #E73FA0",
"]. c #D0429F",
"[. c #F048A9",
"{. c #FA53B3",
"}. c #FF59B9",
"|. c #FF6386",
" X c #BE8B03",
".X c #818F5D",
"XX c #8C9052",
"oX c #98A75F",
"OX c #8DA66C",
"+X c #8FB96E",
"@X c #87B972",
"#X c #CD8B0D",
"$X c #D99D06",
"%X c #EA8B06",
"&X c #E99009",
"*X c #F98100",
"=X c #F98C0B",
"-X c #FC9509",
";X c #FC9F14",
":X c #E2AD09",
">X c #E2AF1E",
",X c #FFAA12",
"<X c #FFB11C",
"1X c #FFB824",
"2X c #CDBA4E",
"3X c #FF9245",
"4X c #FFCD12",
"5X c #FFD312",
"6X c #FFD21D",
"7X c #FFDF12",
"8X c #FFE312",
"9X c #FFFF18",
"0X c #FFFF34",
"qX c #FFD047",
"wX c #FFEA5E",
"eX c #FFE868",
"rX c #FFEA7A",
"tX c #BDEC88",
"yX c #B4EE99",
"uX c #BDED92",
"iX c #B8F09C",
"pX c #87FAC0",
"aX c #8CFEFF",
"sX c #A9EAFF",
"dX c #A0F9FF",
"fX c #ABFFFF",
"gX c #B6FFEC",
"hX c #C1EE8B",
"jX c #DCFFA0",
"kX c #D7FFB4",
"lX c #CCFFEC",
"zX c gray100",
"xX c None",
/* pixels */
"xXxXxXxXxXxXxXxXxXxXxXxXxXxXxXxXxXxXxXxXxXxXxXxXxXxXxXxXxXxXxXxXxXxXxXxXxXxXxXxXxXxXxXxXxXxXxXxXxXxX",
"xXxXxXxXxXxXxXxXxXxXxXxXxXxXxXxXxXxXxXxXxXxXxXxXxXxXxXxXxXxXxXxXxXxXxXxXxXxXxXxXxXxXxXxXxXxXxXxXxXxX",
"xXxXxXxXxXxXxXxXxXxXxXxXxXxXxXxXxXxXxXxXxXxXxXxXxXxXxXxXxXxXxXxXxXxXxXxXxXxXxXxXxXxXxXxXxXxXxXxXxXxX",
"xXxXxXxXxXxXxXxXxXxXxXxXxXxXxX. . . . . . . # # # # # # r r r r r r r xXxXxXxXxXxXxXxXxXxXxXxXxXxXxX",
"xXxXxXxXxXxXxXxXxXxXxXxXxXxXxX. . . . . . . # # # # # # r r r r r r r xXxXxXxXxXxXxXxXxXxXxXxXxXxXxX",
"xXxXxXxXxXxXxXxXxXxXxXxXxXxXxX. . . . . . . # # # # # # r r r r r r r xXxXxXxXxXxXxXxXxXxXxXxXxXxXxX",
"xXxXxXxXxXxXxXxXxXxXxXxXD D D 4 5 1 e @X@X+X2X2X2X#X#X#XL.L.P.m.b.i.d r r r xXxXxXxXxXxXxXxXxXxXxXxX",
"xXxXxXxXxXxXxXxXxXxXxXxXD D D H R R ! yXiXhXeXeXeX,X,X,X*X*X*XF.C.C.6.r r r xXxXxXxXxXxXxXxXxXxXxXxX",
"xXxXxXxXxXxXxXxXxXxXxXxXD D D H R R ! yXyXuXeXeXeX,X,X,X*X*X*XF.C.C.6.r r r xXxXxXxXxXxXxXxXxXxXxXxX",
"xXxXxXxXxXxXxXxXxXD D D T ] ] )  . ...yXyXuXeXeXeXqXqXqX=X*X*XA.C.C.b.y.y.h k k k xXxXxXxXxXxXxXxXxX",
"xXxXxXxXxXxXxXxXxXD D D ' &.&.#.X.X.+.yXyXuXeXeXeXeXeXeX=X*X*XF.C.C.C.C.C.e.k k k xXxXxXxXxXxXxXxXxX",
"xXxXxXxXxXxXxXxXxXD D D ' &.&.#.X.X.+.yXyXuXeXeXeXeXeXeX=X*XR.F.C.C.C.C.C.e.k k k xXxXxXxXxXxXxXxXxX",
"xXxXxXxXxXxX$ $ $ L ' ' | &.&.#.X.X.+.yXyXuXeXeXeXeXeXeX,X-X-XF.C.C.C.C.n.p.b b x k k k xXxXxXxXxXxX",
"xXxXxXxXxXxX$ $ $ ( &.&.&.&.&.#.X.X.+.yXyXuXeXeXeXeXeXeX<X,X,XG.C.C.C.C.C.s.k.k.B k k k xXxXxXxXxXxX",
"xXxXxXxXxXxX$ $ $ ( &.&.&.&.&.#.X.X.+.yXyXuXeXeXeXeXeXeX<X,X,XG.C.C.C.C.C.N.k.k.N k k k xXxXxXxXxXxX",
"xXxXxX$ $ $ ; A A { -.-.-.&.&.#.X.X.+.yXyXuXeXeXeXeXeXeX<X,X,XG.C.C.C.C.C.s.k.k.g.B B m k k k xXxXxX",
"xXxXxX$ $ $ K Y Y $.3.3.2.&.&.#.X.X.+.yXyXuXeXeXeXeXeXeX<X,X,XG.C.C.C.C.C.s.k.k.z.).).z.k k k xXxXxX",
"xXxXxX$ $ $ K Y Y $.3.3.;.&.&.#.X.X.+.yXyXuXeXeXeXeXeXeX<X,X,XG.C.C.C.C.C.s.k.k.z.).)./.k k k xXxXxX",
"xXxXxX$ $ $ K Y Y %.5.5.2.*.*.=.X.X.+.yXyXuXeXeXeXeXeXeX<X,X,XG.C.C.Z.A.A.N.l.l./.`._./.k k k xXxXxX",
"xXxXxX$ $ $ K Y Y >.fXfXaX3.3.,.X.X.+.yXyXuXeXeXeXeXeXeX<X,X,XG.C.C.J.I.I.K.).).`.}.}.].k k k xXxXxX",
"xXxXxX$ $ $ K Y Y >.fXfXaX3.3.,.X.X.+.yXyXuXeXeXeXeXeXeX<X,X,XG.C.C.D.I.I.K.).).`.}.}.].k k k xXxXxX",
"xXxXxX$ $ $ J U U :.dXdXaX5.5.<.o.o.+.yXyXuXeXeXeXwXwXwX1X<X<XJ.Z.n.J.U.U.Q._._.[.{.{.].k k k xXxXxX",
"xXxXxX$ $ $ S D D ] &.&.sXzXzXlX1.1.pXyXyXuXeXeXeX9X9X9XeXeXeXE.I.I.W.!.!.|.}.}.[.).).z.k k k xXxXxX",
"xXxXxX$ $ $ S D D ] &.&.sXzXzXlX1.1.pXyXyXuXeXeXeX9X9X9XwXeXeXE.I.I.W.!.!.|.}.}.[.).).z.k k k xXxXxX",
"xXxXxX$ $ $ S D D ] &.&.sXzXzXlX1.1.pXyXyXuXeXeXeX9X9X9XwXeXeXE.I.I.W.!.!.|.}.}.[.)._.z.k k k xXxXxX",
"xXxXxX$ $ $ S D D I Y Y } &.&.4.fXfXgXkXkXjX9X9X9XzXzXzX0X9X9X3X!.!.Y.I.I.K.).)./.k.k.f.k k k xXxXxX",
"xXxXxX$ $ $ S D D I Y Y } &.&.4.fXfXgXkXkXjX9X9X9XzXzXzX0X9X9X3X!.!.Y.I.I.K.).).~.k.k.f.k k k xXxXxX",
"xXxXxX$ $ $ S D D I Y Y } &.&.4.fXfXgXkXkXjX9X9X9XzXzXzX0X9X9X3X!.!.Y.I.I.K.).).~.k.k.f.k k k xXxXxX",
"xXxXxX$ $ $ S D D F F F I _ _ [ O.O.@.iXiXhX8X8X8XrXrXrX6X5X5XV.M.M.n.n.n.a.k.l.g.M M v k k k xXxXxX",
"xXxXxX$ $ $ S D D D D D P Y Y ` X.X.+.yXyXtX7X7X7XeXeXeX6X4X4XB.b.b.b.b.b.a.k.k.f.M n c k k k xXxXxX",
"xXxXxX$ $ $ S D D D D D P Y Y ` X.X.+.yXyXtX7X7X7XeXeXeX6X4X4XB.b.b.b.b.b.a.k.k.h.n n v k k k xXxXxX",
"xXxXxX$ $ $ % & & Z D D G q q w W W ~ OXOXoX:X:X:X>X>X>X%X%X%Xd.0.0.0.0.y.w.M M M n n v k k k xXxXxX",
"xXxXxXxXxXxX$ $ $ C D D 4 2 2 6 R R Q .X.XXX$X$X$X$X$X$XR.T.T.u.9.9.9.9.9.j n n n n n c k k k xXxXxX",
"xXxXxXxXxXxX$ $ $ C D D 4 2 2 6 R R Q .X.XXX$X$X$X$X$X$XR.T.T.u.9.9.9.9.9.j n n n n n v k k k xXxXxX",
"xXxXxXxXxXxX$ $ $ & * * - 2 2 6 R R Q .X.XXX&X$X$X$X$X$XR.T.T.u.9.9.9.9.9.j n n v z z l k k k xXxXxX",
"xXxXxXxXxXxXxXxXxX$ $ $ = 2 2 6 R R Q .X.XXX$X$X$X$X$X$XR.T.T.u.9.9.9.9.9.j n n c k k k xXxXxXxXxXxX",
"xXxXxXxXxXxXxXxXxX$ $ $ = 2 2 6 R R Q .X/ XX$X$X$X$X$X$X%XT.T.u.9.9.9.9.9.j n n c k k k xXxXxXxXxXxX",
"xXxXxXxXxXxXxXxXxX$ $ $ X @ @ > 7 7 0 ^ / / $X$X$X$X$X$XR.T.T.q.6.d 6.6.d g z x z k k k xXxXxXxXxXxX",
"xXxXxXxXxXxXxXxXxXxXxXxX. . . + 2 2 5 R R Q $X$X$X$X$X$XR.T.T.8.a a a a a u k k k xXxXxXxXxXxXxXxXxX",
"xXxXxXxXxXxXxXxXxXxXxXxX. . . + 2 2 5 R R Q $X#X$X$X$X$XR.T.T.7.a a a a a u k k k xXxXxXxXxXxXxXxXxX",
"xXxXxXxXxXxXxXxXxXxXxXxX. . . O : : > 8 8 9  X X X X X XP.L.P.7.a a i i i y k k k xXxXxXxXxXxXxXxXxX",
"xXxXxXxXxXxXxXxXxXxXxXxXxXxXxX. . . O 2 2 3 x.x.x.x.x.x.v.c.c.f a a t r r r xXxXxXxXxXxXxXxXxXxXxXxX",
"xXxXxXxXxXxXxXxXxXxXxXxXxXxXxX. . . O 2 2 3 x.x.x.x.x.x.v.c.v.f a a t r r r xXxXxXxXxXxXxXxXxXxXxXxX",
"xXxXxXxXxXxXxXxXxXxXxXxXxXxXxX. . . o , , < x.V V V V V r.t.r.s p p t r r r xXxXxXxXxXxXxXxXxXxXxXxX",
"xXxXxXxXxXxXxXxXxXxXxXxXxXxXxXxXxXxX. . . o # # # # # # r r r r r r r xXxXxXxXxXxXxXxXxXxXxXxXxXxXxX",
"xXxXxXxXxXxXxXxXxXxXxXxXxXxXxXxXxXxX. . . . # # # # # # r r r r r r r xXxXxXxXxXxXxXxXxXxXxXxXxXxXxX",
"xXxXxXxXxXxXxXxXxXxXxXxXxXxXxXxXxXxX. . . . # # # # # # r r r r r r r xXxXxXxXxXxXxXxXxXxXxXxXxXxXxX",
"xXxXxXxXxXxXxXxXxXxXxXxXxXxXxXxXxXxXxXxXxXxXxXxXxXxXxXxXxXxXxXxXxXxXxXxXxXxXxXxXxXxXxXxXxXxXxXxXxXxX",
"xXxXxXxXxXxXxXxXxXxXxXxXxXxXxXxXxXxXxXxXxXxXxXxXxXxXxXxXxXxXxXxXxXxXxXxXxXxXxXxXxXxXxXxXxXxXxXxXxXxX",
"xXxXxXxXxXxXxXxXxXxXxXxXxXxXxXxXxXxXxXxXxXxXxXxXxXxXxXxXxXxXxXxXxXxXxXxXxXxXxXxXxXxXxXxXxXxXxXxXxXxX"
};
