/* XPM */
static char *_7a2f560c6974682b87b8c2d50d8d15f48wdKh7hjOHg3jEP[] = {
/* columns rows colors chars-per-pixel */
"48 48 8 1 ",
"  c None",
". c #B9CBC6",
"X c #95A39E",
"o c #808D87",
"O c #6F7B75",
"+ c #5A645F",
"@ c #3A423C",
"# c #2C302C",
/* pixels */
"   ##########################################   ",
"   ##########################################   ",
"   ##########################################   ",
"###OOOOOOOOOOOOOOOOOOOOOOOOOOOOOOOOOOOOOOOOOO###",
"###OOOOOOOOOOOOOOOOOOOOOOOOOOOOOOOOOOOOOOOOOO###",
"###OOOOOOOOOOOOOOOOOOOOOOOOOOOOOOOOOOOOOOOOOO###",
"###OOOXXX..............................XXXOOO###",
"###OOOXXX..............................XXXOOO###",
"###OOOXXX..............................XXXOOO###",
"###ooo++++++++++++++++++++++++++++++++++++OOO###",
"###ooo++++++++++++++++++++++++++++++++++++OOO###",
"###ooo++++++++++++++++++++++++++++++++++++OOO###",
"###XXX++++++++++++++++++++++++++++++++++++XXX###",
"###XXX++++++++++++++++++++++++++++++++++++XXX###",
"###XXX++++++++++++++++++++++++++++++++++++XXX###",
"###XXX###OOOOOOOOOOOOOOOOOOOOOOOOOOOOOO###XXX###",
"###XXX###OOOOOOOOOOOOOOOOOOOOOOOOOOOOOO###XXX###",
"###XXX###OOOOOOOOOOOOOOOOOOOOOOOOOOOOOO###XXX###",
"###XXX###OOOOOOOOOOOOOOOOOOOOOOOOOOOOOO###XXX###",
"###XXX###OOOOOOOOOOOOOOOOOOOOOOOOOOOOOO###XXX###",
"###XXX###OOOOOOOOOOOOOOOOOOOOOOOOOOOOOO###XXX###",
"###XXX###OOOXXXXXXXXXXXXXXXXXXXXXXXXOOO###XXX###",
"###XXX###OOOXXXXXXXXXXXXXXXXXXXXXXXXOOO###XXX###",
"###XXX###OOOXXXXXXXXXXXXXXXXXXXXXXXXOOO###XXX###",
"###XXX###@@@@@@@@@@@@@@@@@@@@@@@@@@@@@@###XXX###",
"###XXX###@@@@@@@@@@@@@@@@@@@@@@@@@@@@@@###XXX###",
"###XXX###@@@@@@@@@@@@@@@@@@@@@@@@@@@@@@###XXX###",
"###XXX###@@@@@@@@@@@@@@@@@@@@@@@@@@@@@@###XXX###",
"###XXX###@@@@@@@@@@@@@@@@@@@@@@@@@@@@@@###XXX###",
"###XXX###@@@@@@@@@@@@@@@@@@@@@@@@@@@@@@###XXX###",
"###XXX######++++++++++++++++++++++++######XXX###",
"###XXX######++++++++++++++++++++++++######XXX###",
"###XXX######++++++++++++++++++++++++######XXX###",
"###XXX####################################XXX###",
"###XXX####################################XXX###",
"###XXX####################################XXX###",
"###OOOXXX..............................XXXOOO###",
"###OOOXXX..............................XXXOOO###",
"###OOOXXX..............................XXXOOO###",
"###++++++++++++++++++++++++++++++++++++++++++###",
"###++++++++++++++++++++++++++++++++++++++++++###",
"###++++++++++++++++++++++++++++++++++++++++++###",
"###++++++++++++++++++++++++++++++++++++++++++###",
"###++++++++++++++++++++++++++++++++++++++++++###",
"###++++++++++++++++++++++++++++++++++++++++++###",
"   ##########################################   ",
"   ##########################################   ",
"   ##########################################   "
};
