/* XPM */
static char *tile07[] = {
/* columns rows colors chars-per-pixel */
"25 50 257 2",
"   c black",
".  c #1B090C",
"X  c #150316",
"o  c #12001E",
"O  c #0F0628",
"+  c #021829",
"@  c #02142B",
"#  c #180322",
"$  c #1A0B23",
"%  c #120A2A",
"&  c #1E1324",
"*  c #1D1D39",
"=  c #09351B",
"-  c #0D2333",
";  c #172B3A",
":  c #210F00",
">  c #230D08",
",  c #250C12",
"<  c #231000",
"1  c #2D1400",
"2  c #311601",
"3  c #3D1B00",
"4  c #3E1B17",
"5  c #231B26",
"6  c #231828",
"7  c #2D1D32",
"8  c #381435",
"9  c #301232",
"0  c #262028",
"q  c #2D252E",
"w  c #202030",
"e  c #2F2530",
"r  c #332635",
"t  c #312D3F",
"y  c #38293A",
"u  c gray22",
"i  c #001746",
"p  c #0B1D57",
"a  c #101B59",
"s  c #19165C",
"d  c #1F1F67",
"f  c #072056",
"g  c #06225A",
"h  c #0B2155",
"j  c #1F2C47",
"k  c #1F2A50",
"l  c #052661",
"z  c #042D6C",
"x  c #033172",
"c  c #02387F",
"v  c #043578",
"b  c #172C73",
"n  c #230E5D",
"m  c #241F5B",
"M  c #28165F",
"N  c #2C0D62",
"B  c #211360",
"V  c #2B1262",
"C  c #351664",
"Z  c #34126C",
"A  c #381767",
"S  c #38176F",
"D  c #3B1A6A",
"F  c #361774",
"G  c #351B75",
"H  c #381572",
"J  c #3D1B76",
"K  c #3B1C7B",
"L  c #28225F",
"P  c #23255A",
"I  c #27305F",
"U  c #3A274E",
"Y  c #3A3346",
"T  c #20226C",
"R  c #2E2D66",
"E  c #36206F",
"W  c #34217B",
"Q  c #3E3170",
"!  c #15533D",
"~  c #1F6B59",
"^  c #21455A",
"/  c #35445C",
"(  c #274367",
")  c #224672",
"_  c #33486C",
"`  c #411E3D",
"'  c #472000",
"]  c #4C331F",
"[  c #502411",
"{  c #41283D",
"}  c #43263A",
"|  c #5B3B31",
" . c #41197B",
".. c #411B73",
"X. c #40274A",
"o. c #48265A",
"O. c #4B2E50",
"+. c #4F2D5B",
"@. c #453743",
"#. c #493B46",
"$. c #433057",
"%. c #56244C",
"&. c #532F56",
"*. c #5D2A52",
"=. c #563256",
"-. c #5D3050",
";. c #4D2768",
":. c #4B217B",
">. c #4B2877",
",. c #493061",
"<. c #5E2E66",
"1. c #633254",
"2. c #78375B",
"3. c #66307A",
"4. c #7F3B69",
"5. c #773B6B",
"6. c #7C3F76",
"7. c #4C4C4C",
"8. c #40465A",
"9. c #4E4F53",
"0. c #444953",
"q. c #565355",
"w. c #655E5F",
"e. c #6E4272",
"r. c #734366",
"t. c #724C6A",
"y. c #6D6965",
"u. c #716D73",
"i. c #023A82",
"p. c #083E8B",
"a. c #1C2F82",
"s. c #253383",
"d. c #3E2284",
"f. c #3C2B8A",
"g. c #004391",
"h. c #05479A",
"j. c #164189",
"k. c #0E4BA3",
"l. c #0A51AC",
"z. c #134CA7",
"x. c #1757AD",
"c. c #1059BD",
"v. c #1553B1",
"b. c #2761B8",
"n. c #1964D3",
"m. c #286BD5",
"M. c #2366D2",
"N. c #441D82",
"B. c #491E83",
"V. c #442087",
"C. c #44298F",
"Z. c #4F2180",
"A. c #4A248C",
"S. c #462388",
"D. c #4A2792",
"F. c #4D2993",
"G. c #4D2F9B",
"H. c #413A9C",
"J. c #522D8A",
"K. c #522D9A",
"L. c #512591",
"P. c #573291",
"I. c #5C3593",
"U. c #463BA0",
"Y. c #4C3EA8",
"T. c #5336A5",
"R. c #5539AA",
"E. c #5C30A5",
"W. c #583EB1",
"Q. c #63389C",
"!. c #6034AB",
"~. c #673BB8",
"^. c #5941B5",
"/. c #5B45BA",
"(. c #6D4E89",
"). c #6C4399",
"_. c #7F4D91",
"`. c #6D42A6",
"'. c #6343BE",
"]. c #7748B2",
"[. c #7243B2",
"{. c #664AC8",
"}. c #6946C6",
"|. c #6C4BCC",
" X c #6347C2",
".X c #6F4ED3",
"XX c #6F53C8",
"oX c #7041C6",
"OX c #7446CD",
"+X c #714FD5",
"@X c #794ED5",
"#X c #7A4CD9",
"$X c #7059C1",
"%X c #7658CC",
"&X c #7B52DE",
"*X c #7652DB",
"=X c #7C54E1",
"-X c #5D936C",
";X c #843F6A",
":X c #864570",
">X c #865774",
",X c #AD5B78",
"<X c #A8666F",
"1X c #955488",
"2X c #9775B2",
"3X c #AA739C",
"4X c #B66780",
"5X c #BB788C",
"6X c #825DD0",
"7X c #8255E6",
"8X c #8356E9",
"9X c #865AE3",
"0X c #8659ED",
"qX c #8B57EF",
"wX c #8C5FED",
"eX c #8A5BF2",
"rX c #915EFA",
"tX c #9565CE",
"yX c #8960E2",
"uX c #9365EF",
"iX c #9663F1",
"pX c #9560FF",
"aX c #9E68FE",
"sX c #B67FFF",
"dX c #DB7C88",
"fX c #95809D",
"gX c #908993",
"hX c #89AF9B",
"jX c #A98797",
"kX c #B596A5",
"lX c #9FA7C4",
"zX c #BE9DC1",
"xX c #B885F6",
"cX c #87C096",
"vX c #ABC5BE",
"bX c #C28090",
"nX c #CA9D93",
"mX c #DD828D",
"MX c #DF8993",
"NX c #D18192",
"BX c #CB90A4",
"VX c #D494A1",
"CX c #CFA4B5",
"ZX c #D0B8B2",
"AX c #EDB0B6",
"SX c #F7B6AF",
"DX c #C68EFF",
"FX c #D5B7C8",
"GX c #E7B8C0",
"HX c #D5CDC9",
"JX c #CAE1CE",
"KX c #FBCDC9",
"LX c #FDD8D6",
"PX c #FCDDDE",
"IX c #FEE3E3",
"UX c #FFFAFA",
"YX c None",
/* pixels */
"YXYXYXYXYXYXYXYXYXYXYXYXYXYXYXYXYXYXYXYXYXYXYXYXYX",
"YXYXYXYXYXYXYXYXYXYXYXYXYXYXYXYXYXYXYXYXYXYXYXYXYX",
"YXYXYXYXYXYXYXYXYXYXYXYXYXYXYXYXYXYXYXYXYXYXYXYXYX",
"YXYXYXYXYXYXYXYXYXYXYXYXYXYXYXYXYXYXYXYXYXYXYXYXYX",
"YXYXYXYXYXYXYXYXYXYXYXYXYXYXYXYXYXYXYXYXYXYXYXYXYX",
"YXYXYXYXYXYXYXYXYXYXYXYXYXYXYXYXYXYXYXYXYXYXYXYXYX",
"YXYXYXYXYXYXYXYXYXYXYXYXYXYXYXYXYXYXYXYXYXYXYXYXYX",
"YXYXYXYXYXYXYXYXYXYXYXYXYXYXYXYXYXYXYXYXYXYXYXYXYX",
"YXYXYXYXYXYXYXYXYXYXYXYXYXYXYXYXYXYXYXYXYXYXYXYXYX",
"YXYXYXYXYXYXYXYXYXYXYXYXm m m m YXYXYXYXYXYXYXYXYX",
"YXYXYXYXYXYXm m m m m m m P m m YXYXYXYXYXYXYXYXYX",
"YXYXYXYXYXYXm m m m m m ^ ~ P m YXYXYXYXYXYXYXYXYX",
"YXYXYXYXYXYXm P ^ L N M R _ G J B.B.YXYXYXYXYXYXYX",
"YXYXYXYXYXYXm I ~ I N N H B.B.B.B.B.YXYXYXYXYXYXYX",
"YXYXYXYXYXYXN N V J B.^.^./.W././.A.B.B.B.YXYXYXYX",
"YXYXYXYXN N Z H d.D.G.T.R.T./.{.+X~.!.K.A.B.YXYXYX",
"YXYXYXYXN N  .F././.^.B.B.B./..XrXrXqX/.L.B.YXYXYX",
"YXYXYXYXN N oX=X/.*XqX^.G.B.F N.K.}.+XeXE.B.YXYXYX",
"YXYXYXN S J.@X=X|.0XrX/.G. .C D >.T.'.qXE.B.YXYXYX",
"YXYXYXN I.DX%X{.pXpXrX/.C.N +.&.&.:.F./.K.B.YXYXYX",
"YXYXYXN I.DXuXwXxXyX|.G.>.o.7 * * <.3.F.T.T.B.B.YX",
"YXYXYXN P.xXaXaXDX6XW.Z.;.O.; - + 5.6.B.R.W.B.B.YX",
"YXYXYXN d./.0XaXDX[.B.4.Y @ hX-X= nXnXB.R.^.B.B.YX",
"YXYXYXN F G.{.yXDX`.G dXjXgXJXhX! ZXGX3XQ.K.B.B.YX",
"YXYXYXN Z B.W.XXDXQ.D SXKXIXUXvX~ HXLXAX1XB.B.B.YX",
"YXYXYXYXN N  .K.pXK.D IXIXIXIXIXIXIXFXB.R.^.B.B.YX",
"YXYXYXYXN N S B.=XD.C kXHXIXIXIXIXzX2XG. X|.B.B.YX",
"YXYXYXYXYXYXN F /.d.N =.jXIXIXIXIXQ.D. X=XqXB.B.YX",
"YXYXYXYXN N  .A./.V.N V.1XMXt.(.$X8XiXxX[.L.B.B.YX",
"YXYXYXYXN N V.K.T.W M E e.<X$.Q H.&X9XtXQ.B.YXYXYX",
"YXYXYXYXN N T.W.B.T f f j u h f f ^.T.N N YXYXYXYX",
"YXYXYXN V.#X=X#XV.a.i.i.( 7.x.h.c b T N N YXYXYXYX",
"YXYXYXN D.eX7XOXK s.j.g.) 0.b.x.g.l a N N YXYXYXYX",
"YXYXYXN K /.F n i +.r.g.v f 9._ g.l f YXYXYXYXYXYX",
"YXYXYXN F G.G.f.i r.,XlXfX>Xq./ z f f YXYXYXYXYXYX",
"YXYXYXN Z B.R.U.i >XNXIXAXdXy.8.h f f YXYXYXYXYXYX",
"YXYXYXYXN N a f p z.m.SXKXIXIXCX4.4.YXYXYXYXYXYXYX",
"YXYXYXYXs d f g x v.M.5XVXAXIXCX4.4.YXYXYXYXYXYXYX",
"YXYXYXYXp p f l g.c.M.4.,XdXPXCX4.4.YXYXYXYXYXYXYX",
"YXYXYXYXp p c g.n.l.g.f +.:X:X*.# $ YXYXYXYXYXYXYX",
"YXYXYXYXf f x i.z.p.v k U %.-.` o o YXYXYXYXYXYXYX",
"YXYXYXYXYXYXf f f f h #.7 o 5 & o o YXYXYXYXYXYXYX",
"YXYXYXYXYXYXO % ; y Y $ & 5 0 & o o YXYXYXYXYXYXYX",
"YXYXYXYX. < X o 5 r y o $ 5 q 6 o u.y.< < YXYXYXYX",
"YXYXYXYX< < X $ 5 $ o YXo o @.r o u.y.< < YXYXYXYX",
"YXYXYXYX. < 2 4 1.9 o YXo o q { *.| ] . : YXYXYXYX",
"YXYXYXYX. < 3 [ 2.8 o YXo o 5 } 2.[ 3 : : YXYXYXYX",
"YXYXYXYX< < 3 ' ' , o YXYXYXo , ' ' 3 : < YXYXYXYX",
"YXYXYXYX< < 1 2 2 < . ' ' YX. > 1 2 1 . < YXYXYXYX",
"YXYXYXYXYXYX. < < < < ' ' YX: < : < < YXYXYXYXYXYX"
};
