/* XPM */
static char *tile02[] = {
/* columns rows colors chars-per-pixel */
"25 50 254 2",
"   c black",
".  c #12011E",
"X  c #14121A",
"o  c #0E0527",
"O  c #0C082D",
"+  c #0E1A3A",
"@  c #16072D",
"#  c #170D23",
"$  c #1B0C23",
"%  c #173D24",
"&  c #210F00",
"*  c #251201",
"=  c #2E1800",
"-  c #311A00",
";  c #351A09",
":  c #270F2F",
">  c #22152C",
",  c #231B2C",
"<  c #2F1133",
"1  c #3B1739",
"2  c #3D2100",
"3  c #262028",
"4  c #292636",
"5  c gray22",
"6  c #001645",
"7  c #061C4A",
"8  c #0E1C47",
"9  c #11194C",
"0  c #1C1940",
"q  c #1A1F59",
"w  c #062055",
"e  c #0B2255",
"r  c #08245D",
"t  c #112846",
"y  c #132254",
"u  c #022E6F",
"i  c #082760",
"p  c #0B2D6C",
"a  c #0F3162",
"s  c #073174",
"d  c #0D367E",
"f  c #142968",
"g  c #250E44",
"h  c #2B0E41",
"j  c #29154F",
"k  c #241E5B",
"l  c #36165F",
"z  c #2C0D63",
"x  c #231869",
"c  c #291360",
"v  c #2F1E67",
"b  c #32126A",
"n  c #311F6A",
"m  c #3C186D",
"M  c #341D75",
"N  c #361D78",
"B  c #3D1776",
"V  c #3D1E77",
"C  c #23275A",
"Z  c #232E5B",
"A  c #2D225A",
"S  c #22305A",
"D  c #233D5C",
"F  c #2D3A59",
"G  c #212468",
"H  c #2A2365",
"J  c #2E216B",
"K  c #2F3F6B",
"L  c #30276F",
"P  c #352961",
"I  c #352E6C",
"U  c #3D2564",
"Y  c #332773",
"T  c #322873",
"R  c #352B7A",
"E  c #3A2471",
"W  c #39297D",
"Q  c #323575",
"!  c #3B3A78",
"~  c #1F6659",
"^  c #204E59",
"/  c #235B46",
"(  c #3C4C79",
")  c #3B5F7C",
"_  c #23705E",
"`  c #3B6D4C",
"'  c #2D7261",
"]  c #422500",
"[  c #462325",
"{  c #40343E",
"}  c #552B22",
"|  c #411F5C",
" . c #421C7D",
".. c #4A1F72",
"X. c #44204C",
"o. c #452848",
"O. c #402650",
"+. c #432A56",
"@. c #492D57",
"#. c #423540",
"$. c #512F5B",
"%. c #563256",
"&. c #5E3659",
"*. c #422B60",
"=. c #472273",
"-. c #502F6B",
";. c #54247B",
":. c #5C2E78",
">. c #523061",
",. c #633254",
"<. c #68385D",
"1. c #77385B",
"2. c #643463",
"3. c #633B6A",
"4. c #6B3564",
"5. c #7C3A67",
"6. c #7F3B69",
"7. c #703B78",
"8. c #404040",
"9. c #4C4042",
"0. c #525252",
"q. c #454A6D",
"w. c #5D457A",
"e. c #674662",
"r. c #6C437D",
"t. c #625462",
"y. c #625C66",
"u. c #7F4965",
"i. c #766A54",
"p. c #666666",
"a. c #796C71",
"s. c #7A7876",
"d. c gray48",
"f. c #023F89",
"g. c #0B3C84",
"h. c #0D3F8F",
"j. c #3F1F81",
"k. c #3A2E82",
"l. c #363F80",
"z. c #3C3085",
"x. c #3F328A",
"c. c #074084",
"v. c #04428D",
"b. c #014290",
"n. c #04499D",
"m. c #084790",
"M. c #1F4187",
"N. c #1F4C96",
"B. c #0B4DA5",
"V. c #0A50AB",
"C. c #1D59B7",
"Z. c #36518E",
"A. c #3E7780",
"S. c #1B67D8",
"D. c #461D81",
"F. c #491E84",
"G. c #46268A",
"H. c #43298E",
"J. c #4A238B",
"K. c #4C2C94",
"L. c #40328C",
"P. c #453594",
"I. c #4A3395",
"U. c #4A399D",
"Y. c #532B9A",
"T. c #4E3CA3",
"R. c #5533A3",
"E. c #543AAA",
"W. c #6A3AB9",
"Q. c #6F3FC1",
"!. c #414B8A",
"~. c #5541AF",
"^. c #5942B6",
"/. c #5C45BC",
"(. c #437487",
"). c #467B8C",
"_. c #6B479A",
"`. c #6851A6",
"'. c #655FB6",
"]. c #6349C4",
"[. c #664AC8",
"{. c #6A49C6",
"}. c #6A4CCC",
"|. c #6D4ED0",
" X c #734DCB",
".X c #714FD5",
"XX c #7847D0",
"oX c #784BD4",
"OX c #7D4CD9",
"+X c #7350D7",
"@X c #7950D1",
"#X c #7A50DB",
"$X c #5A8A75",
"%X c #4BA393",
"&X c #57ABA4",
"*X c #73A196",
"=X c #63CAB4",
"-X c #86446F",
";X c #90476E",
":X c #964B70",
">X c #955276",
",X c #98617F",
"<X c #A4597C",
"1X c #AC5D79",
"2X c #B16478",
"3X c #975F84",
"4X c #956F98",
"5X c #9A738A",
"6X c #A96682",
"7X c #A46A90",
"8X c #AB7592",
"9X c #8059CB",
"0X c #8D5DDE",
"qX c #8653E7",
"wX c #8557EA",
"eX c #8B58E0",
"rX c #905CEE",
"tX c #905BF7",
"yX c #915DF9",
"uX c #936BCB",
"iX c #9160E5",
"pX c #9061E9",
"aX c #9969EA",
"sX c #9363F4",
"dX c #9560FF",
"fX c #A36EFD",
"gX c #A672E0",
"hX c #AB7CEE",
"jX c #DB7C88",
"kX c #82805C",
"lX c #C8B54D",
"zX c #D5C24C",
"xX c gray53",
"cX c #AB899B",
"vX c #B898A7",
"bX c #B180EA",
"nX c #B280F2",
"mX c #BC85FF",
"MX c #90CC9E",
"NX c #DE838C",
"BX c #D7AFBD",
"VX c #EFB6BB",
"CX c #F7B6AF",
"ZX c #E5B9C2",
"AX c #F1BDC1",
"SX c #CEE7D2",
"DX c #EFCED4",
"FX c #F3C3C7",
"GX c #FBCFCC",
"HX c #FCD2D0",
"JX c #FCDDDE",
"KX c #FFE4E4",
"LX c #FFFCFC",
"PX c None",
/* pixels */
"PXPXPXPXPXPXPXPXPXPXPXPXPXPXPXPXPXPXPXPXPXPXPXPXPX",
"PXPXPXPXPXPXPXPXPXPXPXPXPXPXPXPXPXPXPXPXPXPXPXPXPX",
"PXPXPXPXPXPXPXPXPXPXPXPXPXPXPXPXPXPXPXPXPXPXPXPXPX",
"PXPXPXPXPXPXPXPXPXPXPXPXPXPXPXPXPXPXPXPXPXPXPXPXPX",
"PXPXPXPXPXPXPXPXPXPXPXPXPXPXPXPXPXPXPXPXPXPXPXPXPX",
"PXPXPXPXPXPXPXPXPXPXPXPXPXPXPXPXPXPXPXPXPXPXPXPXPX",
"PXPXPXPXPXPXPXPXPXPXPXPXPXPXPXPXPXPXPXPXPXPXPXPXPX",
"PXPXPXPXPXPXPXk k k k PXPXPXPXPXPXPXPXPXPXPXPXPXPX",
"PXPXPXPXPXPXPXk k k k PXPXPXPXPXPXPXPXPXPXPXPXPXPX",
"PXPXPXPXPXPXk C ^ S k PXPXPXPXPXPXPXPXPXPXPXPXPXPX",
"PXPXPXPXPXPXk C _ D k z z z z PXPXPXPXPXPXPXPXPXPX",
"PXPXPXPXPXPXk ( =X) k z z z z PXPXPXPXPXPXPXPXPXPX",
"PXk k k k k i.kX(.!.L.H.D.B z z z z z PXPXPXPXPXPX",
"PXk k k k k lXlXk P././.Y.F.z z z z z PXPXPXPXPXPX",
"PXk k &X%X~ F P F.E./.yXyXyX/.^.^.J. .z z PXPXPXPX",
"PXk k ).(.^ Q W B K.E.XXwXyX+X.X.XR.G.c c PXPXPXPX",
"PXz z k k k T.E.z B F.F.{.dXyXyXyX[.T.k k PXPXPXPX",
"PXz z z Y ~.R J z B F.z F.Y.yXfXmXsXoX .b z PXPXPX",
"PXk k M H./.T k b ..;.l ..B OXpXhXfXeXF.b c PXPXPX",
"PXk k E././.T A %.1.5.%.| z D.Y./.nXgXF.v k PXPXPX",
"PXV V #X{.R *.X.: < 1 2X1X<Xh g j 0XpXE.Y k PXPXPX",
"PXF. .rX Xk +.o.> # $ NXNXNX$ # , @XwX[.k.H k k PX",
"PXk k bXuXk @ 4 MX` % CXCXCX% ` MX'.}.yX|.~.k k PX",
"PXk k aX9Xk X.e.SX$X/ GXGXGX/ $XSX`.R.W.I.k.k k PX",
"PXk k wX Xk 4.3XLX*X' KXKXKX' *XLX_.F.F.v k PXPXPX",
"PXk k ~.U.k 2.:XCXHXKXKXKXKXKXHXCX:X4.k V F.k k PX",
"PXC k x.x.x.-.3.5XcXvXVXVXVXvXcX5X7.:.k.I.K.k k PX",
"PXPXPXk R /.T k C +.&.jXjXjX&.+.C  .K././.~.k k PX",
"PXPXPXk R /.M x v.r 8 9.9.9.y p f.f m J.E.E.k k PX",
"PXPXPXk L T.=.E B.p 7 8.8.8.e s B.I U M P.U.k k PX",
"PXPXPXk k k 2._.S.g.y 0.0.0.e g.S._.>.e y k k k PX",
"PXPXPX@.$.<.1X6XS.B.c.d.d.d.d m.S.7X1X2.$.+.k k PX",
"PXPXPX%.<.;X6X4XS.V.m.xXxXxXm.V.S.4X6X;X<.%.PXPXPX",
"PXPXPX%.u.jXZ.n.S.V.v.xXxXxXm.V.S.n.Z.jXu.%.PXPXPX",
"PXPXPX4.,XAX( u V.n.v.p.p.p.m.n.V.u ( VX,X4.PXPXPX",
"PX6.6.-X8XJXq.w v.f.c.0.0.0.c.c.v.w q.JX8X-X6.6.PX",
"PX6.6.DXFXjX:X<.6 X * 5 5 5 & X 6 4.:XjXFXDX6.6.PX",
"PX6.6.DXZX1Xr.M.h.a t , , , t a h.M.r.1XZXDX6.6.PX",
"PX6.6.DXBX5.M.n.S.V.f.. . . v.V.S.n.M.5.BXDX6.6.PX",
"PX6.6.-Xr.v.v.n.S.f o 6 6 + o f S.n.v.v.r.-X6.6.PX",
"PXPXPX>.! V.V.B.N.y O 6 6 6 O y N.B.V.V.! >.PXPXPX",
"PXPXPXw d S.S.C., + 6 6 6 6 6 + , C.S.S.d e PXPXPX",
"PXPXPXw r p 9 0 { > o 6 6 6 O > #.0 9 p r w PXPXPX",
"PXPXPXPXe e O $ { > . PXPXPX. > { $ O w w PXPXPXPX",
"PXPXPXPXPXPX. . , $ . PXPXPX. $ 3 $ . PXPXPXPXPXPX",
"PXPXPXPXPXPXy.t.,.[ ; PXPXPX; [ ,.t.y.PXPXPXPXPXPX",
"PXPXPXPXPXPXs.a.1.} ] PXPXPX2 } 1.a.s.PXPXPXPXPXPX",
"PXPXPXPXPXPX* * ] = & PXPXPX* = ] * & PXPXPXPXPXPX",
"PXPXPXPX& & - - - * & PXPXPX& * - - = & & PXPXPXPX",
"PXPXPXPX& & 2 2 & & & PXPXPX& & & ] 2 & & PXPXPXPX"
};
