/* XPM */
static char *tile08[] = {
/* columns rows colors chars-per-pixel */
"25 50 173 2",
"   c black",
".  c #1C0A09",
"X  c #12011E",
"o  c #0F0628",
"O  c #0F092E",
"+  c #0E0C33",
"@  c #190C21",
"#  c #210F00",
"$  c #251100",
"%  c #2B1300",
"&  c #311600",
"*  c #361925",
"=  c #262028",
"-  c #0A1645",
";  c #0A1A49",
":  c #071E53",
">  c #0D1C58",
",  c #13195A",
"<  c #1B175E",
"1  c #0E204A",
"2  c #072056",
"3  c #06225A",
"4  c #08255F",
"5  c #052661",
"6  c #062865",
"7  c #042B69",
"8  c #092C6B",
"9  c #033174",
"0  c #04357B",
"q  c #09367E",
"w  c #1D2960",
"e  c #102E7F",
"r  c #15377A",
"t  c #241F5B",
"y  c #2C0D63",
"u  c #221463",
"i  c #21176A",
"p  c #2F1068",
"a  c #2F1872",
"s  c #34126C",
"d  c #361E6F",
"f  c #3B1564",
"g  c #351773",
"h  c #361976",
"j  c #3A1574",
"k  c #3E1979",
"l  c #27295C",
"z  c #2F215E",
"x  c #223C5A",
"c  c #312B59",
"v  c #383159",
"b  c #272161",
"n  c #2E266D",
"m  c #392D7F",
"M  c #3C3762",
"N  c #214B59",
"B  c #23525D",
"V  c #225B59",
"C  c #254860",
"Z  c #2B5D67",
"A  c #30406C",
"S  c #365175",
"D  c #236B5E",
"F  c #2F7C6E",
"G  c #411E22",
"H  c #472000",
"J  c #411963",
"K  c #421A7C",
"L  c #4D394F",
"P  c #443859",
"I  c #46247C",
"U  c #4F3E78",
"Y  c #5F2966",
"T  c #633254",
"R  c #78375B",
"E  c #7F3B69",
"W  c #4D4457",
"Q  c #40446E",
"!  c #455179",
"~  c #625462",
"^  c #625C66",
"/  c #766A54",
"(  c #607A73",
")  c #796B71",
"_  c #7A7876",
"`  c #013A82",
"'  c #063B8A",
"]  c #0C3B86",
"[  c #0E3B88",
"{  c #352483",
"}  c #3D2081",
"|  c #00418D",
" . c #004391",
".. c #05479A",
"X. c #064A9F",
"o. c #0D4292",
"O. c #1B4B9E",
"+. c #0E4EA8",
"@. c #0A51AD",
"#. c #134DA8",
"$. c #1156B5",
"%. c #1059BD",
"&. c #214084",
"*. c #145DC4",
"=. c #1560CA",
"-. c #1962CF",
";. c #1A66D5",
":. c #1B67D8",
">. c #461C81",
",. c #491E84",
"<. c #452186",
"1. c #43258A",
"2. c #4A2087",
"3. c #4B248C",
"4. c #4E2994",
"5. c #40328B",
"6. c #493295",
"7. c #4D329B",
"8. c #493A93",
"9. c #502E9A",
"0. c #4D34A0",
"q. c #4E3CA5",
"w. c #5235A3",
"e. c #553BAC",
"r. c #573DB0",
"t. c #583EB1",
"y. c #643AB4",
"u. c #6D3EBF",
"i. c #5942B5",
"p. c #5B45BB",
"a. c #437087",
"s. c #6442BD",
"d. c #6743C0",
"f. c #6449C5",
"g. c #674BC9",
"h. c #6B4DCC",
"j. c #6E4ED0",
"k. c #7658CC",
"l. c #7250D6",
"z. c #7551D9",
"x. c #7856D5",
"c. c #7B56DC",
"v. c #7D5CD0",
"b. c #7F56E5",
"n. c #4B8992",
"m. c #5FBFAE",
"M. c #823D6A",
"N. c #874570",
"B. c #9B4F72",
"V. c #A15F81",
"C. c #A76F8F",
"Z. c #824FE0",
"A. c #8659EE",
"S. c #8D5CF5",
"D. c #915EFA",
"F. c #8361D5",
"G. c #9065E7",
"H. c #9560FF",
"J. c #9964FF",
"K. c #9E69FE",
"L. c #A06EF7",
"P. c #A46EFF",
"I. c #A771FF",
"U. c #AA74FF",
"Y. c #B37CFF",
"T. c #DB7C88",
"R. c #918352",
"E. c #FFE849",
"W. c #B982FF",
"Q. c #EDB0B6",
"!. c #C68EFF",
"~. c #FFE4E4",
"^. c None",
/* pixels */
"^.^.^.^.^.^.^.^.^.^.^.^.^.^.^.^.^.^.^.^.^.^.^.^.^.",
"^.^.^.^.^.^.^.^.^.^.^.^.^.^.^.^.^.^.^.^.^.^.^.^.^.",
"^.^.^.^.^.^.^.^.^.^.^.^.^.^.^.^.^.^.^.^.^.^.^.^.^.",
"^.^.^.^.^.^.^.^.^.^.^.^.^.^.^.^.^.^.^.^.^.^.^.^.^.",
"^.^.^.^.^.^.^.^.^.^.^.^.^.^.^.^.^.^.^.^.^.^.^.^.^.",
"^.^.^.^.^.^.^.^.^.^.^.^.^.^.^.^.^.^.^.^.^.^.^.^.^.",
"^.^.^.^.^.^.^.^.^.^.^.^.^.^.^.^.^.^.^.^.^.^.^.^.^.",
"^.^.^.^.^.^.^.^.^.t t t t ^.^.^.^.^.^.^.^.^.^.^.^.",
"^.^.^.^.^.^.^.^.^.t t t t ^.^.^.^.^.^.^.^.^.^.^.^.",
"^.^.^.^.^.^.^.t t x N t l ^.^.^.^.^.^.^.^.^.^.^.^.",
"^.^.^.^.^.^.^.t t B D t d ,.,.,.,.,.^.^.^.^.^.^.^.",
"^.^.^.^.^.^.^.t t n.m.t d ,.,.,.,.,.^.^.^.^.^.^.^.",
"^.^.^.t t t t v R.( a.5.6.w.u.y.w.2.,.^.^.^.^.^.^.",
"^.^.^.t t t t W E./ b p.p.p.D.b.p.3.,.^.^.^.^.^.^.",
"^.^.^.t S m.F V c 8.i.p.w.,.s.l.D.f.e.,.,.^.^.^.^.",
"^.^.^.t A n.Z C m q.p.w.4.,.p.x.I.c.d.,.,.^.^.^.^.",
"^.^.^.^.t l t n p.p.p.,.,.,.p.F.!.K.Z.,.,.^.^.^.^.",
"^.^.^.^.K K 0.i.S.h.p.r.r.r.A.L.!.K.Z.,.,.^.^.^.^.",
"^.^.^.^.K K e.f.A.z.h.k.k.k.K.I.W.K.Z.,.,.^.^.^.^.",
"^.^.^.^.y y q.p.p.b.J.!.!.!.!.Y.D.D.Z.,.,.^.^.^.^.",
"^.^.^.y h 0.i.p.p.g.h.v.G.P.P.K.D.c.u.,.s y ^.^.^.",
"^.^.^.y k r.p.p.p.p.p.p.z.D.S.S.S.g.r.,.s y ^.^.^.",
"^.^.^.y s ,.e.p.p.p.p.p.p.p.p.p.p.p.e.,.s y ^.^.^.",
"^.^.^.y p j e.p.9.r.p.p.e.9.p.p.p.w.4.,.s y ^.^.^.",
"^.^.^.y y y 0.r.,.w.p.p.9.,.p.p.p.3.,.,.s y ^.^.^.",
"^.^.^.y y y k ,.y K ,.p.p.p.,.9.p.g s ,.s y ^.^.^.",
"^.^.^.y p s j j j j k w.t.p.K ,.w.s s ,.s y ^.^.^.",
"^.^.^.y s ,.s s ,.s y ,.w.p.p s ,.s s ,.s y ^.^.^.",
"^.^.^.y y p K 2.i.} y ,.,.,.y y y K ,.,.s y ^.^.^.",
"^.^.^.y y y K 3.p.1.g k ,.,.j p y 3.3.k s y ^.^.^.",
"^.^.^.^.y y K 3.p.4.>.y j ,.,.k y e.0.y y ^.^.^.^.",
"^.^.^.^.y y 9.e.4.k s > u s >.>.k r.q.y y ^.^.^.^.",
"^.^.^.^.y y q.r.K a i : , u K >.,.w.7.f f ^.^.^.^.",
"^.^.^.^.y y w.e.y ]  .: : : y j ,.p J M.E ^.^.^.^.",
"^.^.^.^.Y Y I { e '  .0 7 : , u s < z M.E ^.^.^.^.",
"^.^.^.E M.N.J u ' '  . .9 3 : , y > l N.M.E ^.^.^.",
"^.^.^.E C.~.L o : o.$. . . .3 : 2 2 ! ~.C.E ^.^.^.",
"^.^.^.E V.Q.P - 9 +.*.9 `  .9 0 [ 4 Q Q.C.E ^.^.^.",
"^.^.^.E B.T.M 5  .%.-.: 9  . .+.$.8 v T.B.E ^.^.^.",
"^.^.^.E M.M.&.` 3 #.-.: ] $.3 ] :.o.[ M.E E ^.^.^.",
"^.^.^.2 w U r q ] #.$.2 ] +.3 q %.@.O.U w 2 ^.^.^.",
"^.^.^.2 7  .6 8 :.+.| 2 9 | 3 7  .=.=. .7 2 ^.^.^.",
"^.^.^.2 3 5 3 3 8 7 5 o O + : 3 5 8 8 5 3 2 ^.^.^.",
"^.^.^.2 2 2 ; ; ; ; - X X X - ; 1 ; ; 2 2 2 ^.^.^.",
"^.^.^.^.^.^.X X = @ X ^.^.^.X @ = X X ^.^.^.^.^.^.",
"^.^.^.^.^.^.^ ~ T * . ^.^.^.. * T ~ ^ ^.^.^.^.^.^.",
"^.^.^.^.^.^._ ) R G # ^.^.^.# G R ) _ ^.^.^.^.^.^.",
"^.^.^.^.^.^.# $ H & # ^.^.^.# % H $ # ^.^.^.^.^.^.",
"^.^.^.^.^.^.# $ & $ # ^.^.^.# $ & $ # ^.^.^.^.^.^.",
"^.^.^.^.^.^.# # # # # ^.^.^.# # # # # ^.^.^.^.^.^."
};
