/* XPM */
static char *tile03[] = {
/* columns rows colors chars-per-pixel */
"25 50 257 2",
"   c black",
".  c #13011D",
"X  c #180713",
"o  c #160415",
"O  c #14121A",
"+  c #0F082D",
"@  c #0D103A",
"#  c #100222",
"$  c #16072D",
"%  c #1E0724",
"&  c #1A0B23",
"*  c #1D1323",
"=  c #1A2524",
"-  c #173D24",
";  c #210F00",
":  c #221103",
">  c #22140C",
",  c #351A09",
"<  c #201625",
"1  c #241D26",
"2  c #281A2C",
"3  c #2C183F",
"4  c #262028",
"5  c #2B222C",
"6  c #293D37",
"7  c #332532",
"8  c #37273F",
"9  c #332A33",
"0  c gray22",
"q  c #3B303A",
"w  c #292636",
"e  c #001746",
"r  c #0F1942",
"t  c #061948",
"y  c #001F54",
"u  c #111645",
"i  c #131C51",
"p  c #171F61",
"a  c #072056",
"s  c #062259",
"d  c #0C2155",
"f  c #0A2A55",
"g  c #132A48",
"h  c #17255B",
"j  c #1F2059",
"k  c #152356",
"l  c #032661",
"z  c #022C6A",
"x  c #053A7D",
"c  c #0A3176",
"v  c #1D2960",
"b  c #182A6B",
"n  c #1D2565",
"m  c #12377F",
"M  c #241E5B",
"N  c #2C0D63",
"B  c #2B1162",
"V  c #2B1E63",
"C  c #231965",
"Z  c #33116C",
"A  c #331D6B",
"S  c #3E1C63",
"D  c #3B1675",
"F  c #3B1E74",
"G  c #391D7C",
"H  c #212554",
"J  c #24215A",
"K  c #2C215A",
"L  c #2D295C",
"P  c #232D5A",
"I  c #22385A",
"U  c #31245B",
"Y  c #272960",
"T  c #292264",
"R  c #29256D",
"E  c #2F3C6B",
"W  c #2A3764",
"Q  c #30206A",
"!  c #34296F",
"~  c #332473",
"^  c #322873",
"/  c #352B79",
"(  c #382A71",
")  c #382D7D",
"_  c #3E3165",
"`  c #1F6B59",
"'  c #2E4D6B",
"]  c #3F4A6D",
"[  c #385778",
"{  c #375977",
"}  c #3B6D4C",
"|  c #2D7261",
" . c #422500",
".. c #532A22",
"X. c #56283D",
"o. c #4A2629",
"O. c #411A67",
"+. c #421B7C",
"@. c #421A76",
"#. c #472A40",
"$. c #4B2A4D",
"%. c #48265A",
"&. c #492D57",
"*. c #412D52",
"=. c #423540",
"-. c #463944",
";. c #493B46",
":. c #433057",
">. c #5C3947",
",. c #563256",
"<. c #583257",
"1. c #4C247B",
"2. c #4F3E78",
"3. c #542B61",
"4. c #5A3F66",
"5. c #5F3D73",
"6. c #562776",
"7. c #602C53",
"8. c #663144",
"9. c #633059",
"0. c #6A3B5D",
"q. c #72355D",
"w. c #602D68",
"e. c #6A3564",
"r. c #6B316F",
"t. c #7F3B69",
"y. c #454545",
"u. c #4C4C4C",
"i. c #575757",
"p. c #514F6B",
"a. c #587266",
"s. c #6A444C",
"d. c #745E55",
"f. c #724C6A",
"g. c #003C85",
"h. c #153E82",
"j. c #3E2284",
"k. c #3F328A",
"l. c #05448D",
"z. c #004392",
"x. c #044799",
"c. c #05499E",
"v. c #084790",
"b. c #1B4085",
"n. c #0A4FA9",
"m. c #064CA2",
"M. c #0A50AB",
"N. c #1B47A2",
"B. c #194DB2",
"V. c #1B50AE",
"C. c #1751B1",
"Z. c #1059BD",
"A. c #2F4082",
"S. c #224686",
"D. c #2346A8",
"F. c #3459AC",
"G. c #125CC2",
"H. c #1B67D8",
"J. c #1964D3",
"K. c #2164D1",
"L. c #3464C0",
"P. c #451D81",
"I. c #481D83",
"U. c #422485",
"Y. c #4B258C",
"T. c #473497",
"R. c #463A95",
"E. c #4B369D",
"W. c #4A399D",
"Q. c #51298C",
"!. c #532D9B",
"~. c #5437A7",
"^. c #543BA9",
"/. c #5E30A6",
"(. c #6134AE",
"). c #6536B2",
"_. c #5F488B",
"`. c #5541AF",
"'. c #5942B5",
"]. c #5C46BC",
"[. c #6B479A",
"{. c #7D4C8A",
"}. c #6043B7",
"|. c #6643BB",
" X c #655FB6",
".X c #5F47C0",
"XX c #6A47C8",
"oX c #6D4ED0",
"OX c #6F57C3",
"+X c #7349CC",
"@X c #714ED2",
"#X c #7C4ED4",
"$X c #7855D6",
"%X c #7C54E1",
"&X c #419A86",
"*X c #4DAC97",
"=X c #5BB4A8",
"-X c #73A196",
";X c #63CAB4",
":X c #813E6B",
">X c #874570",
",X c #955276",
"<X c #96597E",
"1X c #A8666F",
"2X c #B9667B",
"3X c #835C8D",
"4X c #975F84",
"5X c #A76F8F",
"6X c #B77897",
"7X c #845DCB",
"8X c #824FE0",
"9X c #8657EA",
"0X c #8659EE",
"qX c #8B57EF",
"wX c #8A5BF2",
"eX c #905BF7",
"rX c #935EFD",
"tX c #936BCB",
"yX c #9B67E0",
"uX c #9560FF",
"iX c #9964FF",
"pX c #9E68FF",
"aX c #A16EEC",
"sX c #A26EE2",
"dX c #A16BFF",
"fX c #AB7AEE",
"gX c #A771FF",
"hX c #AB79F6",
"jX c #DB7C88",
"kX c #8A8452",
"lX c #958554",
"zX c #BDAC4E",
"xX c #CBBA4E",
"cX c #858585",
"vX c #88A49A",
"bX c #AF8AA6",
"nX c #BF8FA6",
"mX c #AEB6AF",
"MX c #8DA5DE",
"NX c #B180EA",
"BX c #90CC9E",
"VX c #DD828D",
"CX c #DF8993",
"ZX c #CA99A8",
"AX c #EA9C9D",
"SX c #F7B6AF",
"DX c #C68EFF",
"FX c #C9ACC5",
"GX c #D5B7C0",
"HX c #DFB9C5",
"JX c #D5CCE0",
"KX c #E7C4CC",
"LX c #FAD2D1",
"PX c #F8DAD9",
"IX c #FFE4E4",
"UX c #FFFCFC",
"YX c None",
/* pixels */
"YXYXYXYXYXYXYXYXYXYXYXYXYXYXYXYXYXYXYXYXYXYXYXYXYX",
"YXYXYXYXYXYXYXYXYXYXYXYXYXYXYXYXYXYXYXYXYXYXYXYXYX",
"YXYXYXYXYXYXYXYXYXYXYXYXYXYXYXYXYXYXYXYXYXYXYXYXYX",
"YXYXYXYXYXYXYXYXYXYXYXYXYXYXYXYXYXYXYXYXYXYXYXYXYX",
"YXYXYXYXYXYXYXYXYXYXYXYXYXYXYXYXYXYXYXYXYXYXYXYXYX",
"YXYXYXYXYXYXYXYXYXYXYXYXYXYXYXYXYXYXYXYXYXYXYXYXYX",
"YXYXYXYXYXYXYXYXYXYXYXYXYXYXYXYXYXYXYXYXYXYXYXYXYX",
"YXYXYXYXYXYXYXYXYXYXYXYXYXYXYXYXYXYXYXYXYXYXYXYXYX",
"YXYXYXYXYXYXYXYXYXYXYXYXYXYXYXYXYXYXYXYXYXYXYXYXYX",
"YXYXYXYXYXYXYXM M M M YXYXYXYXYXYXYXYXYXYXYXYXYXYX",
"YXYXYXYXYXYXJ J J J M YXYXYXYXYXYXYXYXYXYXYXYXYXYX",
"YXYXYXYXYXYXJ h ` I M YXYXYXYXYXYXYXYXYXYXYXYXYXYX",
"YXYXYXYXYXYXM W &X' M N N N N YXYXYXYXYXYXYXYXYXYX",
"YXYXYXYXYXYXJ E ;X{ J N N N N YXYXYXYXYXYXYXYXYXYX",
"YXM M M M M zXxXY R.'.'.!.P.N N N N N YXYXYXYXYXYX",
"YXM M [ { I kXlX! E.].@XXX).U.j.j.D Z N N YXYXYXYX",
"YXM M =X*X` P T I.^.|.rXuXuX|.].].Y.+.N N YXYXYXYX",
"YXB N E W P R.E.Z P.Y.!.+XuXwXwXwX].E.M M YXYXYXYX",
"YXN N V T ^ T.T.N D I.@.(.8XrXiXdX@X).V B N YXYXYX",
"YXYXYXN G ].^ M N D P.N D I.eXgXDXpX%XI.Z N YXYXYX",
"YXM M T.^.'.^ K %.w.r.%.S Z /.|.$XhXyXI.Z M YXYXYX",
"YXV T ^.].`.( K &.9.q.0.3.O.@.Y.`.fXsXY.A M YXYXYX",
"YXI.I.wXXXJ *.X.. . % jXjXjX% . o #X0X]./ J YXYXYX",
"YXA A aX7XM 3 U a.6 = AXAXAX= 6 a.OX$X%X^.k.M M YX",
"YXM M fXtXJ $ w BX} - SXSXSX- } BX XoXrXoX`.M M YX",
"YXM M 9X+XJ e.4XUX-X| IXIXIX| -XUX[.I.I.A M YXYXYX",
"YXM J @X'.M e.<XPXmXvXIXIXIXvXmXPX{.6.F A A M M YX",
"YXM M '.E.M e.,XSXLXIXIXIXIXIXLXSX,Xe.M ~ +.J M YX",
"YXM M T ) `.( U _ p.f.VXCXVXf.p.:.Y.Q.`.^.^.T M YX",
"YXYXYXM / ].( C b L *.1X1X1X&.L b ~ U.^.'.`.M M YX",
"YXYXYXM / ].G C l.l y 0 o.0 d z z.n V I.^.`.M M YX",
"YXYXYXM T ^ D.B.l.g.x u.u.u.g.g.z.V.N.p R ^ M M YX",
"YXYXYXM M U V.G.c.x.l.i.i.a.v.v.c.L.F.k M M M M YX",
"YXYXYXYX,.,.m c.H.M.v.cXcXcXv.n.H.6X2X,.,.YXYXYXYX",
"YXYXYXYX0.e.b.c.H.M.v.cXcXcXv.n.H.FXZX<.,.YXYXYXYX",
"YXYXYXt.>X>Xb.x.J.n.v.cX-X4Xv.n.J.JXGX<.H y YXYXYX",
"YXYXYXt.5XIX] a l.l.l.i.u.i.l.] t.KXHXt.L a YXYXYX",
"YXYXYXt.3XMXS.z z f g y.y.y.g p.nXPXHXt.L a YXYXYX",
"YXYXYX:X_.H.m.g.e O ; 0 0 0 : d.IXIXHX:XL y YXYXYX",
"YXYXYXd m H.i # # * 4 4 4 4 1 0.jXLXHX:XY y YXYXYX",
"YXYXYXa c Z.u . & 1 9 1 4 4 4 >.2XZXbX2.n a YXYXYX",
"YXYXYXa z z.@ & 1 q -.1 4 4 = X.t.:X5.g.z a YXYXYX",
"YXYXYXa a l + & =.9 5 & # & 1 5 7 H h l s a YXYXYX",
"YXYXYXYXi y + % ;.7 * # . # * * 1 r i y a YXYXYXYX",
"YXYXYXYXYXYX. % -.2 . YXYXYX. & 1 & . YXYXYXYXYXYX",
"YXYXYXYX . .X.7.0.o., YXYXYX. o > o . YXYXYXYXYXYX",
"YXYXYXYX . .8.q.q... .YXYXYX. X ; o . YXYXYXYXYXYX",
"YXYXYXYX; ; ; ; ; ; ; YXYXYX; ; ; ; ; YXYXYXYXYXYX",
"YXYXYXYX: ; ; ; ; ; ; YXYXYX; ; ; ; ; YXYXYXYXYXYX",
"YXYXYXYX; ; ; ; ; ; ; YXYXYXYXYXYXYXYXYXYXYXYXYXYX"
};
