/* XPM */
static char *tile015[] = {
/* columns rows colors chars-per-pixel */
"25 50 257 2",
"   c black",
".  c #1D0B07",
"X  c #12001E",
"o  c #1E0F10",
"O  c #0F0628",
"+  c #02162A",
"@  c #170920",
"#  c #1F0E28",
"$  c #160924",
"%  c #100C33",
"&  c #1F1E2F",
"*  c #1D1323",
"=  c #1D1D39",
"-  c #1C1534",
";  c #09351B",
":  c #0D2333",
">  c #192538",
",  c #210F00",
"<  c #251100",
"1  c #2C1400",
"2  c #311600",
"3  c #3F1C00",
"4  c #321711",
"5  c #301B1B",
"6  c #26162C",
"7  c #221A26",
"8  c #231A27",
"9  c #381C37",
"0  c #391536",
"q  c #382B1F",
"w  c #252028",
"e  c #2D252E",
"r  c #202030",
"t  c #2F2A3C",
"y  c #2E333D",
"u  c #342536",
"i  c #332A33",
"p  c gray22",
"a  c #3E323C",
"s  c #0B1441",
"d  c #101B59",
"f  c #1F1F67",
"g  c #072056",
"h  c #062158",
"j  c #0B2154",
"k  c #0C245C",
"l  c #142144",
"z  c #1F2C47",
"x  c #1C395D",
"c  c #052661",
"v  c #033377",
"b  c #1C296F",
"n  c #173B67",
"m  c #241F5B",
"M  c #28165F",
"N  c #2C0D62",
"B  c #261361",
"V  c #310F63",
"C  c #351664",
"Z  c #3A1665",
"A  c #38176F",
"S  c #3C196B",
"D  c #34126C",
"F  c #361774",
"G  c #351B75",
"H  c #381572",
"J  c #3D1B76",
"K  c #3B1C7B",
"L  c #23245A",
"P  c #28225F",
"I  c #232D5C",
"U  c #27305F",
"Y  c #323B5E",
"T  c #272769",
"R  c #262E7C",
"E  c #36206F",
"W  c #34217B",
"Q  c #343567",
"!  c #15533D",
"~  c #1F6B59",
"^  c #21455A",
"/  c #3A4355",
"(  c #33486C",
")  c #472000",
"_  c #493533",
"`  c #41197B",
"'  c #411B73",
"]  c #40274A",
"[  c #4A2A55",
"{  c #463944",
"}  c #493B46",
"|  c #433057",
" . c #532F56",
".. c #563256",
"X. c #5E3659",
"o. c #4D2768",
"O. c #4B217B",
"+. c #4B2877",
"@. c #433166",
"#. c #48357C",
"$. c #5E2E66",
"%. c #572779",
"&. c #5D3363",
"*. c #6E3B5E",
"=. c #603C50",
"-. c #78375B",
";. c #73355B",
":. c #6E3967",
">. c #6F3C6E",
",. c #693361",
"<. c #66307A",
"1. c #7F3B69",
"2. c #7B3F76",
"3. c #4E4F53",
"4. c #48495C",
"5. c #4F5359",
"6. c #4D5256",
"7. c #505151",
"8. c #574855",
"9. c #6D4374",
"0. c #645664",
"q. c #714D6C",
"w. c #734064",
"e. c #744075",
"r. c #795F6C",
"t. c #787577",
"y. c #013A82",
"u. c #1C2F82",
"i. c #3E2284",
"p. c #383D89",
"a. c #00408D",
"s. c #004492",
"d. c #0B4599",
"f. c #114397",
"g. c #0F4CA5",
"h. c #0F57B9",
"j. c #0D55B4",
"k. c #134AA4",
"l. c #264D8F",
"z. c #2A4784",
"x. c #1860CC",
"c. c #1B67D8",
"v. c #1964D3",
"b. c #491E83",
"n. c #411E82",
"m. c #442087",
"M. c #4F2180",
"N. c #4A248C",
"B. c #45268C",
"V. c #4D2993",
"C. c #4E2F9B",
"Z. c #4A2792",
"A. c #532B8A",
"S. c #522D9A",
"D. c #512591",
"F. c #573291",
"G. c #5C3593",
"H. c #5336A5",
"J. c #563AAB",
"K. c #5C30A5",
"L. c #583EB1",
"P. c #63389C",
"I. c #6034AB",
"U. c #673BB8",
"Y. c #52588D",
"T. c #5941B5",
"R. c #5B45BA",
"E. c #6D4E89",
"W. c #6C4399",
"Q. c #7F4D91",
"!. c #6D42A6",
"~. c #6343BE",
"^. c #7748B2",
"/. c #7243B2",
"(. c #6C4BCC",
"). c #6648C5",
"_. c #6F4ED3",
"`. c #6F53C8",
"'. c #7041C6",
"]. c #7848CF",
"[. c #714FD5",
"{. c #7A4DD7",
"}. c #7658CC",
"|. c #7059C1",
" X c #7B52DE",
".X c #7B54E1",
"XX c #5D936C",
"oX c #823D6A",
"OX c #85426D",
"+X c #874570",
"@X c #9B4F72",
"#X c #975276",
"$X c #866266",
"%X c #AD5B78",
"&X c #A8666F",
"*X c #B8637C",
"=X c #955488",
"-X c #9D6285",
";X c #9775B2",
":X c #A15F81",
">X c #A76F8F",
",X c #A97896",
"<X c #AA739C",
"1X c #B2718D",
"2X c #825DD0",
"3X c #8255E6",
"4X c #8356E9",
"5X c #865AE3",
"6X c #8659ED",
"7X c #8B57EF",
"8X c #8C5FED",
"9X c #8A5BF2",
"0X c #915EFA",
"qX c #9565CE",
"wX c #8960E2",
"eX c #9365EF",
"rX c #9560FF",
"tX c #9E68FE",
"yX c #9663F1",
"uX c #B67FFF",
"iX c #C96F82",
"pX c #CD7888",
"aX c #DB7C88",
"sX c #908993",
"dX c gray53",
"fX c #89AF9B",
"gX c #A98797",
"hX c #B596A5",
"jX c #BE9DC1",
"kX c #B885F6",
"lX c #87C096",
"zX c #ABC5BE",
"xX c #C28090",
"cX c #CA9D93",
"vX c #DF8993",
"bX c #CB90A4",
"nX c #CFA4B5",
"mX c #D0B8B2",
"MX c #E4969F",
"NX c #E1A0AA",
"BX c #EDB0B6",
"VX c #F7B6AF",
"CX c #C68EFF",
"ZX c #D0BFC9",
"AX c #D5B7C8",
"SX c #E7B8C0",
"DX c #F1BDC1",
"FX c #D5CDC9",
"GX c #CAE1CE",
"HX c #E4C7CE",
"JX c #F8CBCB",
"KX c #F8D0D2",
"LX c #FDD8D6",
"PX c #FBDADB",
"IX c #FFE4E4",
"UX c #FFFAFA",
"YX c None",
/* pixels */
"YXYXYXYXYXYXYXYXYXYXYXYXYXYXYXYXYXYXYXYXYXYXYXYXYX",
"YXYXYXYXYXYXYXYXYXYXYXYXYXYXYXYXYXYXYXYXYXYXYXYXYX",
"YXYXYXYXYXYXYXYXYXYXYXYXYXYXYXYXYXYXYXYXYXYXYXYXYX",
"YXYXYXYXYXYXYXYXYXYXYXYXYXYXYXYXYXYXYXYXYXYXYXYXYX",
"YXYXYXYXYXYXYXYXYXYXYXYXYXYXYXYXYXYXYXYXYXYXYXYXYX",
"YXYXYXYXYXYXYXYXYXYXYXYXYXYXYXYXYXYXYXYXYXYXYXYXYX",
"YXYXYXYXYXYXYXYXYXYXYXYXYXYXYXYXYXYXYXYXYXYXYXYXYX",
"YXYXYXYXYXYXYXYXYXYXYXYXYXYXYXYXYXYXYXYXYXYXYXYXYX",
"YXYXYXYXYXYXYXYXYXYXYXYXYXYXYXYXYXYXYXYXYXYXYXYXYX",
"YXYXYXYXYXYXYXYXYXP m m m YXYXYXYXYXYXYXYXYXYXYXYX",
"YXYXYXYXYXYXYXYXYXm m L L m m m m m m YXYXYXYXYXYX",
"YXYXYXYXYXYXYXYXYXm L ~ ^ m m m m m m YXYXYXYXYXYX",
"YXYXYXYXYXYXYXb.b.J E ( T M N P ^ L m YXYXYXYXYXYX",
"YXYXYXYXYXYXYXb.b.b.b.b.H N N U ~ I m YXYXYXYXYXYX",
"YXYXYXYXb.b.b.N.R.R.T.R.T.R.b.J B N N YXYXYXYXYXYX",
"YXYXYXb.N.S.K.U.[.).R.H.H.H.S.Z.m.H D N N YXYXYXYX",
"YXYXYXb.V.R.6XrXrX_.T.b.b.b.R.R.R.Z.` N N YXYXYXYX",
"YXYXYXb.K.9X_.~.S.m.F m.S.L.6X XR. X'.N N YXYXYXYX",
"YXYXYXb.K.6X~.H.O.' C ` C.R.0X6X(.5X{.A.A N YXYXYX",
"YXYXYXb.S.R.Z.O.......N B.R.0XrXrX).}.CXG.N YXYXYX",
"YXb.b.H.H.V.<.,.& & = [ +.V.(.wXkX9XeXCXG.N YXYXYX",
"YXb.b.T.J.b.2.:.+ : > [ o.O.T.2XCXtXtXkXF.N YXYXYX",
"YXb.b.T.J.N.bXcX; XXlX+ ] 1.M.^.CXtX6XR.W N YXYXYX",
"YXb.b.S.W.<XSXmX! fXGXsXgXxX' !.CX5X(.C.F N YXYXYX",
"YXb.b.b.=XBXLXFX~ zXUXIXJXVXZ P.CX`.J.b.D N YXYXYX",
"YXb.b.T.J.n.AXIXIXIXIXIXIXIXA S.0XS.` N N YXYXYXYX",
"YXb.b.(.).S.;XjXIXIXIXIXFXhXC Z.3XN.H N N YXYXYXYX",
"YXb.b.7X6XR.V.P.IXIXIXIXgX..N i.R.F N YXYXYXYXYXYX",
"YXb.b.D./.kXyX3X^.E.q.MX=XM.N i.R.N.J N N YXYXYXYX",
"YXYXYXb.P.qX5X XR.#.| &X9.G f W J.S.m.N N YXYXYXYX",
"YXYXYXYXN N H.R.R.R g p z g g B b.L.H.N N YXYXYXYX",
"YXYXYXYXN N T b b Y / p x y.y.u.b.{.3X{.m.N YXYXYX",
"YXYXYXYXN N d h c / 7.y n a.l.p.%.].3X9XN.N YXYXYX",
"YXYXYXYXYXYXg c s.( 3.h v s.pX*X1.Z K R.i.N YXYXYX",
"YXYXYXYX1.1.L k Q 4.5.g.d.s.#X1XnXe.%.C.F N YXYXYX",
"YXYXYX1.oX+XQ I X.8.5.v.j.s.>.,XPX:X2.A.D V YXYXYX",
"YXYXYX1.>XIXIXKXaX$X5.y.j.c.s.Y.aXKXIXIX>X1.YXYXYX",
"YXYXYX1.>XIXDXNX%X=.t v g.c.s.z.q.HXPXBX:X1.YXYXYX",
"YXYXYX1.>XIXMXiX1.0 O g f.c.s.y.h ZXJXaX@X1.YXYXYX",
"YXYXYX1.oX+XOX:.d % @ w l c x.h.a.9.OXoXoX1.YXYXYX",
"YXYXYXYX1.1.1.,.s - 6 w > l k.f.v @.&.oX1.YXYXYXYX",
"YXYXYXYXYXYXYXX O u { w 8 w g g h h h YXYXYXYXYXYX",
"YXYXYXYXYXYXYXX X u { w * X & & r O O YXYXYXYXYXYX",
"YXYXYXYXYXYXdXt.# u _ * * X 7 8 e * X X X YXYXYXYX",
"YXYXYXYXYXYXdXt.} i 8 X X YXX 6 } e 7 X X YXYXYXYX",
"YXYXYX, , , q _ *.u X X X YX0.0.*.5 o X X YXYXYXYX",
"YXYXYX, , < < 4 -.0 X X X YXt.r.-.4 . X X YXYXYXYX",
"YXYXYX, 2 ) ) 3 , , , YXYXYX< 1 ) < , YXYXYXYXYXYX",
"YXYXYX, < 2 2 1 , , , YX, , , < 2 < , YXYXYXYXYXYX",
"YXYXYXYX, , , , , , YXYX, , , , , , YXYXYXYXYXYXYX"
};
