/* XPM */
static char *tile00[] = {
/* columns rows colors chars-per-pixel */
"25 50 255 2",
"   c black",
".  c #12011E",
"X  c #14121A",
"o  c #0E0527",
"O  c #0C082D",
"+  c #0E1A3A",
"@  c #16072D",
"#  c #170D23",
"$  c #1B0C23",
"%  c #173D24",
"&  c #210F00",
"*  c #251201",
"=  c #2E1800",
"-  c #311A00",
";  c #351A09",
":  c #270F2F",
">  c #22152C",
",  c #231B2C",
"<  c #2F1133",
"1  c #3B1739",
"2  c #3D2100",
"3  c #262028",
"4  c #292636",
"5  c gray22",
"6  c #001645",
"7  c #061C4A",
"8  c #0E1C47",
"9  c #11194C",
"0  c #1C1940",
"q  c #1A1F59",
"w  c #062055",
"e  c #0B2255",
"r  c #08245D",
"t  c #112846",
"y  c #132254",
"u  c #022E6F",
"i  c #082760",
"p  c #0B2D6C",
"a  c #0F3162",
"s  c #073174",
"d  c #0D367E",
"f  c #142968",
"g  c #250E44",
"h  c #2B0E41",
"j  c #29154F",
"k  c #241E5B",
"l  c #36165F",
"z  c #2C0D63",
"x  c #231869",
"c  c #291360",
"v  c #2F1E67",
"b  c #32126A",
"n  c #311F6A",
"m  c #3C186D",
"M  c #341D75",
"N  c #361D78",
"B  c #3D1776",
"V  c #3D1E77",
"C  c #23275A",
"Z  c #232E5B",
"A  c #2D225A",
"S  c #22305A",
"D  c #233D5C",
"F  c #2D3A59",
"G  c #212468",
"H  c #2A2365",
"J  c #2E216B",
"K  c #2F3F6B",
"L  c #30276F",
"P  c #352961",
"I  c #352E6C",
"U  c #3D2564",
"Y  c #332773",
"T  c #322873",
"R  c #352B7A",
"E  c #3A2471",
"W  c #39297D",
"Q  c #323575",
"!  c #3D3E77",
"~  c #3B3A78",
"^  c #1F6659",
"/  c #204E59",
"(  c #235B46",
")  c #3C4C79",
"_  c #3B5F7C",
"`  c #23705E",
"'  c #3B6D4C",
"]  c #2D7261",
"[  c #422500",
"{  c #462325",
"}  c #40343E",
"|  c #552B22",
" . c #411F5C",
".. c #421C7D",
"X. c #4A1F72",
"o. c #44204C",
"O. c #452848",
"+. c #402650",
"@. c #432A56",
"#. c #492D57",
"$. c #423540",
"%. c #512F5B",
"&. c #563256",
"*. c #5E3659",
"=. c #422B60",
"-. c #472273",
";. c #502F6B",
":. c #54247B",
">. c #5C2E78",
",. c #523061",
"<. c #583964",
"1. c #533D72",
"2. c #633254",
"3. c #61345D",
"4. c #68385D",
"5. c #77385B",
"6. c #643463",
"7. c #633B6A",
"8. c #6B3564",
"9. c #7C3A67",
"0. c #7F3B69",
"q. c #703B78",
"w. c #404040",
"e. c #4C4042",
"r. c #525252",
"t. c #454A6D",
"y. c #5D457A",
"u. c #674662",
"i. c #6C437D",
"p. c #625462",
"a. c #625C66",
"s. c #7F4965",
"d. c #766A54",
"f. c #666666",
"g. c #796C71",
"h. c #7A7876",
"j. c gray48",
"k. c #023F89",
"l. c #0B3C84",
"z. c #0D3F8F",
"x. c #3F1F81",
"c. c #3A2E82",
"v. c #363F80",
"b. c #3C3085",
"n. c #3F328A",
"m. c #074084",
"M. c #04428D",
"N. c #014290",
"B. c #04499D",
"V. c #084790",
"C. c #1F4187",
"Z. c #1F4C96",
"A. c #0B4DA5",
"S. c #0A50AB",
"D. c #1D59B7",
"F. c #36518E",
"G. c #3E7780",
"H. c #1B67D8",
"J. c #461D81",
"K. c #491E84",
"L. c #46268A",
"P. c #43298E",
"I. c #4A238B",
"U. c #4C2C94",
"Y. c #40328C",
"T. c #453594",
"R. c #4A3395",
"E. c #4A399D",
"W. c #532B9A",
"Q. c #4E3CA3",
"!. c #5533A3",
"~. c #543AAA",
"^. c #6A3AB9",
"/. c #6F3FC1",
"(. c #414B8A",
"). c #5541AF",
"_. c #5942B6",
"`. c #5C45BC",
"'. c #437487",
"]. c #467B8C",
"[. c #6B479A",
"{. c #6851A6",
"}. c #655FB6",
"|. c #6349C4",
" X c #664AC8",
".X c #6A49C6",
"XX c #6A4CCC",
"oX c #6D4ED0",
"OX c #734DCB",
"+X c #714FD5",
"@X c #7847D0",
"#X c #784BD4",
"$X c #7D4CD9",
"%X c #7350D7",
"&X c #7950D1",
"*X c #7A50DB",
"=X c #5A8A75",
"-X c #4BA393",
";X c #57ABA4",
":X c #73A196",
">X c #63CAB4",
",X c #86446F",
"<X c #90476E",
"1X c #964B70",
"2X c #955276",
"3X c #98617F",
"4X c #A4597C",
"5X c #AC5C79",
"6X c #B16478",
"7X c #975F84",
"8X c #9A738A",
"9X c #AB7592",
"0X c #8059CB",
"qX c #8D5DDE",
"wX c #8653E7",
"eX c #8557EA",
"rX c #8B58E0",
"tX c #905CEE",
"yX c #905BF7",
"uX c #915DF9",
"iX c #936BCB",
"pX c #9160E5",
"aX c #9061E9",
"sX c #9969EA",
"dX c #9363F4",
"fX c #9560FF",
"gX c #A36EFD",
"hX c #A672E0",
"jX c #AB7CEE",
"kX c #DB7C88",
"lX c #82805C",
"zX c #C8B54D",
"xX c #D5C24C",
"cX c gray53",
"vX c #AB899B",
"bX c #B898A7",
"nX c #B180EA",
"mX c #B280F2",
"MX c #BC85FF",
"NX c #90CC9E",
"BX c #DE838C",
"VX c #D7AFBD",
"CX c #EFB6BB",
"ZX c #F7B6AF",
"AX c #E5B9C2",
"SX c #F1BDC1",
"DX c #CEE7D2",
"FX c #EFCED4",
"GX c #F3C3C7",
"HX c #FBCFCC",
"JX c #FCD2D0",
"KX c #FCDDDE",
"LX c #FFE4E4",
"PX c #FFFCFC",
"IX c None",
/* pixels */
"IXIXIXIXIXIXIXIXIXIXIXIXIXIXIXIXIXIXIXIXIXIXIXIXIX",
"IXIXIXIXIXIXIXIXIXIXIXIXIXIXIXIXIXIXIXIXIXIXIXIXIX",
"IXIXIXIXIXIXIXIXIXIXIXIXIXIXIXIXIXIXIXIXIXIXIXIXIX",
"IXIXIXIXIXIXIXIXIXIXIXIXIXIXIXIXIXIXIXIXIXIXIXIXIX",
"IXIXIXIXIXIXIXIXIXIXIXIXIXIXIXIXIXIXIXIXIXIXIXIXIX",
"IXIXIXIXIXIXIXIXIXIXIXIXIXIXIXIXIXIXIXIXIXIXIXIXIX",
"IXIXIXIXIXIXIXIXIXIXIXIXIXIXIXIXIXIXIXIXIXIXIXIXIX",
"IXIXIXIXIXIXIXk k k k IXIXIXIXIXIXIXIXIXIXIXIXIXIX",
"IXIXIXIXIXIXIXk k k k IXIXIXIXIXIXIXIXIXIXIXIXIXIX",
"IXIXIXIXIXIXk C / S k IXIXIXIXIXIXIXIXIXIXIXIXIXIX",
"IXIXIXIXIXIXk C ` D k z z z z IXIXIXIXIXIXIXIXIXIX",
"IXIXIXIXIXIXk ) >X_ k z z z z IXIXIXIXIXIXIXIXIXIX",
"IXk k k k k d.lX'.(.Y.P.J.B z z z z z IXIXIXIXIXIX",
"IXk k k k k zXzXk T.`.`.W.K.z z z z z IXIXIXIXIXIX",
"IXk k ;X-X^ F P K.~.`.uXuXuX`._._.I...z z IXIXIXIX",
"IXk k ].'./ Q W B U.~.@XeXuX%X+X+X!.L.c c IXIXIXIX",
"IXz z k k k Q.~.z B K.K..XfXfXuXuX XQ.k k IXIXIXIX",
"IXz z z N ~.R L z B K.b ..W.uXgXMXdX#X..b z IXIXIX",
"IXk k M P.`.T k l X.:.l m ..$XpXjXgXrXK.b c IXIXIX",
"IXk k ).`.`.Y A &.8.0.&. .z K.W.`.mXhXK.v k IXIXIX",
"IXV V *X.XR @.+.: < 1 6X5X4Xh g j qXaX~.Y k IXIXIX",
"IX..K.tXOXk @.O.> $ $ BXBXBX$ # , &XeX Xc.H k k IX",
"IXk k nXiXk @ 4 NX' % ZXZXZX% ' NX}.XXuXoX).k k IX",
"IXk k sX0Xk o.u.DX=X( HXHXHX( =XDX{.!.^.R.c.k k IX",
"IXk k eXOXk 8.7XPX:X] LXLXLX] :XPX[.K.K.v k IXIXIX",
"IXk k ).E.k 6.1XZXHXLXLXLXLXLXJXZX1X8.k V K.k k IX",
"IXC k n.n.n.;.7.8XvXbXCXCXCXbXvX8Xq.>.c.R.U.k k IX",
"IXIXIXk R `.T k C @.*.BXkXkX*.@.C ..U.`.`.).k k IX",
"IXIXIXk R `.N x M.r 8 e.e.e.y f k.f m I.~.~.k k IX",
"IXIXIXk L Q.-.E A.u 7 w.( $.e s A.I U M T.E.k k IX",
"IXIXIXk k k 6.i.H.m.e r.r.r.w l.H.i.<.w y k k k IX",
"IXIXIX#.%.8.3.1.H.A.d j.h.3Xl.A.H.1.3.6.%.@.k k IX",
"IXIXIX&.4.<X<.! H.S.V.cXcXcXV.S.H.! <.<X4.&.IXIXIX",
"IXIXIX&.s.kXF.B.H.S.M.cXcXcXV.S.H.B.F.kXs.&.IXIXIX",
"IXIXIX8.3XSX) u S.B.M.f.f.f.V.B.S.u ) SX3X8.IXIXIX",
"IX0.0.,X9XKXt.w M.k.m.r.r.r.m.m.M.w t.KX9X,X0.0.IX",
"IX0.0.FXGXkX1X4.6 X * 5 5 5 & X 6 8.1XkXGXFX0.0.IX",
"IX0.0.FXAX5Xi.C.z.a t , , , t a z.v.y.5XAXFX0.0.IX",
"IX0.0.FXVX9.C.B.H.S.k.. . . M.S.H.B.C.0.VXFX0.0.IX",
"IX0.0.,Xi.M.M.B.H.f o 6 6 + o f H.B.N.M.y.,X0.0.IX",
"IXIXIX,.! S.S.A.Z.y O 6 6 6 O y Z.A.S.S.1.;.IXIXIX",
"IXIXIXw l.H.H.D., + 6 6 6 6 6 + , D.H.H.l.w IXIXIX",
"IXIXIXw r p 9 0 } > o 6 6 6 O > $.0 9 p r w IXIXIX",
"IXIXIXIXw w O $ } > . IXIXIX. > 5 $ @ w w IXIXIXIX",
"IXIXIXIXIXIX. . , $ . IXIXIX. $ 3 . . IXIXIXIXIXIX",
"IXIXIXIXIXIXa.p.2.{ ; IXIXIX; { 2.p.f.IXIXIXIXIXIX",
"IXIXIXIXIXIXh.g.5.| [ IXIXIX2 | 5.g.h.IXIXIXIXIXIX",
"IXIXIXIXIXIX* * [ = & IXIXIX* = [ * & IXIXIXIXIXIX",
"IXIXIXIX& & - - - * & IXIXIX& * - - - & & IXIXIXIX",
"IXIXIXIX& & - [ & * & IXIXIX& & & [ 2 & & IXIXIXIX"
};
