/* XPM */
static char *tile04[] = {
/* columns rows colors chars-per-pixel */
"25 50 257 2",
"   c black",
".  c #1F0D03",
"X  c #1B090A",
"o  c #12001D",
"O  c #1B0618",
"+  c #0C0629",
"@  c #03142B",
"#  c #02133F",
"$  c #100120",
"%  c #180F35",
"&  c #1E1324",
"*  c #19152C",
"=  c #1C1D38",
"-  c #062A20",
";  c #0B3B22",
":  c #1A233F",
">  c #210E00",
",  c #241001",
"<  c #2F1500",
"1  c #2E110D",
"2  c #321601",
"3  c #30170B",
"4  c #260C2E",
"5  c #241E27",
"6  c #291A2E",
"7  c #261E39",
"8  c #3F2111",
"9  c #25202A",
"0  c #2E2032",
"q  c #2D2F3A",
"w  c #232332",
"e  c #302133",
"r  c #3E313D",
"t  c #001746",
"y  c #0E1C47",
"u  c #091A4B",
"i  c #0C1E54",
"p  c #0E1D5C",
"a  c #041C50",
"s  c #101B59",
"d  c #1E155D",
"f  c #171F61",
"g  c #062055",
"h  c #06235B",
"j  c #0B2157",
"k  c #172D4F",
"l  c #1C2B49",
"z  c #152956",
"x  c #1D3454",
"c  c #052661",
"v  c #062965",
"b  c #042B69",
"n  c #0B2A68",
"m  c #05387F",
"M  c #063576",
"N  c #112462",
"B  c #1E2672",
"V  c #241E5B",
"C  c #28155F",
"Z  c #36165F",
"A  c #2C0D63",
"S  c #241868",
"D  c #34126C",
"F  c #381767",
"G  c #39196A",
"H  c #331E6B",
"J  c #351672",
"K  c #371976",
"L  c #3B1674",
"P  c #3F1D76",
"I  c #3B1D7D",
"U  c #212E42",
"Y  c #252659",
"T  c #2D304E",
"R  c #24335C",
"E  c #253859",
"W  c #363A42",
"Q  c #3B3C54",
"!  c #2F3D63",
"~  c #32236B",
"^  c #1F6B59",
"/  c #204E59",
"(  c #23425B",
")  c #294B72",
"_  c #334C69",
"`  c #21665B",
"'  c #451F05",
"]  c #472000",
"[  c #40343E",
"{  c #421A7C",
"}  c #491E7E",
"|  c #402A4B",
" . c #4D2B5A",
".. c #452754",
"X. c #512E5D",
"o. c #563256",
"O. c #573C59",
"+. c #5E3659",
"@. c #4F286D",
"#. c #483167",
"$. c #50296A",
"%. c #522673",
"&. c #5C3A69",
"*. c #583B78",
"=. c #643357",
"-. c #78375B",
";. c #73395D",
":. c #673C70",
">. c #6E3171",
",. c #71336F",
"<. c #7F3B69",
"1. c #404040",
"2. c #4C4042",
"3. c #4D5259",
"4. c #535353",
"5. c #41546E",
"6. c #406B58",
"7. c #576074",
"8. c #62455C",
"9. c #625C66",
"0. c #714E6F",
"q. c #7F436F",
"w. c #754D67",
"e. c #715276",
"r. c #78566A",
"t. c #61666D",
"y. c #747577",
"u. c #787679",
"i. c #013C85",
"p. c #18368B",
"a. c #3E2183",
"s. c #0C408F",
"d. c #004391",
"f. c #0F4D96",
"g. c #114397",
"h. c #174698",
"j. c #0F4AA2",
"k. c #0D55B4",
"l. c #1F4EAE",
"z. c #2949AD",
"x. c #1B67D8",
"c. c #491E84",
"v. c #462986",
"b. c #44298F",
"n. c #4A2187",
"m. c #4B248C",
"M. c #452585",
"N. c #4C2692",
"B. c #4C2A93",
"V. c #4C2D99",
"C. c #462B92",
"Z. c #542C8A",
"A. c #532C9B",
"S. c #502A93",
"D. c #5E3189",
"F. c #52319F",
"G. c #5B3497",
"H. c #4E34A0",
"J. c #5232A0",
"K. c #563BAC",
"L. c #5B39AE",
"P. c #5B3CA7",
"I. c #583EB1",
"U. c #653D9D",
"Y. c #6137AC",
"T. c #6339B3",
"R. c #6E3EC0",
"E. c #465AA3",
"W. c #5941B5",
"Q. c #5B45BB",
"!. c #4C6582",
"~. c #546B86",
"^. c #68429F",
"/. c #6B4396",
"(. c #7F4D91",
"). c #7243AC",
"_. c #7A4EBD",
"`. c #7B71B0",
"'. c #6849C8",
"]. c #6E4DD0",
"[. c #6F53C8",
"{. c #7649C7",
"}. c #704FD4",
"|. c #7847D0",
" X c #7A4BD8",
".X c #7755CE",
"XX c #7857D3",
"oX c #7D54E3",
"OX c #5F8B75",
"+X c #679977",
"@X c #7F8185",
"#X c #843F6A",
"$X c #86436E",
"%X c #874670",
"&X c #8E4A71",
"*X c #885172",
"=X c #924D86",
"-X c #956096",
";X c #9F6F92",
":X c #88668B",
">X c #AB7C82",
",X c #AF7A97",
"<X c #AF7393",
"1X c #B3768E",
"2X c #815CD9",
"3X c #8355E7",
"4X c #8357EA",
"5X c #8B57EF",
"6X c #8B5CF2",
"7X c #905CF7",
"8X c #915EFA",
"9X c #8763D7",
"0X c #9060F4",
"qX c #9560FF",
"wX c #9865F8",
"eX c #9E68FF",
"rX c #A16BFF",
"tX c #A975E1",
"yX c #AA74FF",
"uX c #CD7888",
"iX c #C57084",
"pX c #DB7C88",
"aX c #80858C",
"sX c #968FAF",
"dX c #9B81A2",
"fX c #9DAFA7",
"gX c #AA8B9D",
"hX c #B798AE",
"jX c #B79ED2",
"kX c #A5ABC6",
"lX c #96C7A3",
"zX c #ABC5BE",
"xX c #D199AA",
"cX c #CBA39A",
"vX c #EDB0B6",
"bX c #EFB6BB",
"nX c #E2B4BC",
"mX c #F7B6AF",
"MX c #C68EFF",
"NX c #DFB9C5",
"BX c #D1B2CC",
"VX c #F1BDC1",
"CX c #CFC5D4",
"ZX c #D5CDC9",
"AX c #DAD6D3",
"SX c #E4C3D0",
"DX c #EFD7DB",
"FX c #ECDAD8",
"GX c #FBCECB",
"HX c #F3D9DC",
"JX c #FDD8D6",
"KX c #FDDBDB",
"LX c #F8D0D2",
"PX c #FFE4E4",
"IX c #FFEDED",
"UX c #FFFAFA",
"YX c None",
/* pixels */
"YXYXYXYXYXYXYXYXYXYXYXYXYXYXYXYXYXYXYXYXYXYXYXYXYX",
"YXYXYXYXYXYXYXYXYXYXYXYXYXYXYXYXYXYXYXYXYXYXYXYXYX",
"YXYXYXYXYXYXYXYXYXYXYXYXYXYXYXYXYXYXYXYXYXYXYXYXYX",
"YXYXYXYXYXYXYXYXYXYXYXYXYXYXYXYXYXYXYXYXYXYXYXYXYX",
"YXYXYXYXYXYXYXYXYXYXYXYXYXYXYXYXYXYXYXYXYXYXYXYXYX",
"YXYXYXYXYXYXYXYXYXYXYXYXYXYXYXYXYXYXYXYXYXYXYXYXYX",
"YXYXYXYXYXYXYXYXYXYXYXYXYXYXYXYXYXYXYXYXYXYXYXYXYX",
"YXYXYXYXYXYXYXYXYXYXYXYXV V V V YXYXYXYXYXYXYXYXYX",
"YXYXYXYXYXYXYXYXYXYXYXYXV V V V YXYXYXYXYXYXYXYXYX",
"YXYXYXYXYXYXV V V V V V R / Y V YXYXYXYXYXYXYXYXYX",
"YXYXYXYXYXYXV V Y A A V ( ` Y H c.c.YXYXYXYXYXYXYX",
"YXYXYXYXYXYXV R ^ R A A L c.c.c.c.c.YXYXYXYXYXYXYX",
"YXYXYXYXYXYXA V E ~ L b.V.F.J.J.J.n.c.c.c.YXYXYXYX",
"YXYXYXYXYXYXA A A I n.Q.Q.Q.Q.Q.Q.N.c.c.c.YXYXYXYX",
"YXYXYXYXA A P m.W.Q.W.n.n.n.Q.].8X7X3XQ.B.c.YXYXYX",
"YXYXYXYXA A A.T.Q.'.].V.m.c.V.L.|.oXoX}.A.c.YXYXYX",
"YXYXYXYXA A  X6XQ.oX8XQ.A.c.A J c.I.].qXL.} YXYXYX",
"YXYXYXA Z.tX.X].6X8X8XQ.b.D  .X.X.n.F.'.A.c.YXYXYX",
"YXYXYXA G.MX2X}.rX0X4XK.v.F | | | %.Z.P.A.N.c.c.YX",
"YXYXYXA G.MXrXrXMX9XW.c.@.o.@ @ @ =.,.c.K.I.c.c.YX",
"YXYXYXA M.2X0XwXMX_.S.>...= OX6.- >X<Xc.K.I.c.c.YX",
"YXYXYXA I W.3XwXMX).} &XO.U lX+X; cXxXD.P.I.c.c.YX",
"YXYXYXA D c.K.[.MXU.F mXGXPXUXzX^ ZXJXmX(.c.c.c.YX",
"YXYXYXA A J B.Y.yXP.F GXKXPXIXAXfXFXSX-X^.J.c.c.YX",
"YXYXYXYXA A { A.qXA.G PXPXPXPXPXPXPXBXc.K.W.c.c.YX",
"YXYXYXYXYXYXA J Q.a.A o.gXPXPXPXPX/.N.Q.4X5Xc.c.YX",
"YXYXYXYXA A D { Q.a.A $.;XbXhXhXjX_.{.9X{.R.c.c.YX",
"YXYXYXYXA A P N.Q.M.A n.=XpX+.*.Q.6XrXMX).c.YXYXYX",
"YXYXYXYXA A H.K.m.S j s T 2.y j N l.z.{ c.c.YXYXYX",
"YXYXYXA J N.'.'.c.B b b E 1.l z v i.p.A A YXYXYXYX",
"YXYXYXA N.8X7X3Xc.p.d.d.) 4.4._ d.c s A A YXYXYXYX",
"YXYXYXA c.'.A.a.N #.&.d.M k y.!.d.c s A A YXYXYXYX",
"YXYXYXA I I.K S h &.%Xd.i.n aX~.i.h g YXYXYXYXYXYX",
"YXYXYXA D c.D S d.:XuXi.k.x.aX7.g h g YXYXYXYXYXYX",
"YXYXYXA D c.C s d.sXnXb j.x.t.5.M e.*X<.<.YXYXYXYX",
"YXYXYXYXYXYXt g f.kXDXz h.x.3._ d.1XiX<.<.YXYXYXYX",
"YXYXYXYXYXYXt ! PXPXKXpX`.x.W E d.CXNX<.<.YXYXYXYX",
"YXYXYXYXYXYXt E vXLXHX0.E.x.q x d.dX,X<.<.YXYXYXYX",
"YXYXYXYXYXYXt Y pXVXDXh g.x.w z d.:.<.YXYXYXYXYXYX",
"YXYXYXYXYXYX$ 4 #X$Xq.h M d.9 k d.N j YXYXYXYXYXYX",
"YXYXYXYXYXYX+ %  .#.#.b v v 9 : v h i YXYXYXYXYXYX",
"YXYXYXYXYXYXt t t u g d.j o 9 & o u g YXYXYXYXYXYX",
"YXYXYXYXYXYXt # $ * 7 Q w o r 0 o u g YXYXYXYXYXYX",
"YXYXYXYXYXYXYXo $ 5 9 r 6 o r 0 o o YXYXYXYXYXYXYX",
"YXYXYXYXYXYXYXo o & 9 5 & $ 5 & o o YXYXYXYXYXYXYX",
"YXYXYXYXYXYXYXX . 3 8 =.8.9.=.8.9.9.YXYXYXYXYXYXYX",
"YXYXYXYXYXYXYX. . 2 ' -.r.u.;.w.u.u.YXYXYXYXYXYXYX",
"YXYXYXYXYXYXYXo o X > ' 1 o . X o o YXYXYXYXYXYXYX",
"YXYXYXYXYXYXYXo o X > 2 3 1 > > 3 O o YXYXYXYXYXYX",
"YXYXYXYXYXYXYXo $ X > > 2 ' > 2 ' O o YXYXYXYXYXYX"
};
