/* XPM */
static char *tile09[] = {
/* columns rows colors chars-per-pixel */
"25 50 185 2",
"   c black",
".  c #1B090B",
"X  c #12001D",
"o  c #1A1315",
"O  c #18131B",
"+  c #0F0628",
"@  c #0E0A2F",
"#  c #0E0B31",
"$  c #0C103A",
"%  c #101935",
"&  c #210F00",
"*  c #261100",
"=  c #2D1400",
"-  c #251610",
";  c #3B1A00",
":  c #091A4B",
">  c #071E53",
",  c #0A1E57",
"<  c #0D1C58",
"1  c #190E4A",
"2  c #14185A",
"3  c #19165C",
"4  c #062056",
"5  c #06225A",
"6  c #07285E",
"7  c #052661",
"8  c #042D6C",
"9  c #082967",
"0  c #0F2D7D",
"q  c #08366C",
"w  c #033173",
"e  c #03377D",
"r  c #02387F",
"t  c #0B3175",
"y  c #0A357C",
"u  c #0B3D7F",
"i  c #1E2479",
"p  c #241F5B",
"a  c #270F61",
"s  c #2C0D63",
"d  c #251060",
"f  c #23176B",
"g  c #291065",
"h  c #2F1068",
"j  c #2D1E65",
"k  c #361365",
"l  c #34126C",
"z  c #361E6F",
"x  c #371572",
"c  c #3C1675",
"v  c #391875",
"b  c #3E1A7A",
"n  c #24245A",
"m  c #26315E",
"M  c #332F5E",
"N  c #272960",
"B  c #2A2B65",
"V  c #2B3365",
"C  c #2B3069",
"Z  c #2F3F6B",
"A  c #30266F",
"S  c #3C3762",
"D  c #1F5C59",
"F  c #1F6659",
"G  c #204E59",
"H  c #3C4D58",
"J  c #284462",
"K  c #375476",
"L  c #3B5F7C",
"P  c #366C76",
"I  c #421D00",
"U  c #421A7C",
"Y  c #48265A",
"T  c #4E285B",
"R  c #4D394F",
"E  c #563256",
"W  c #51305C",
"Q  c #583257",
"!  c #4C3561",
"~  c #57286C",
"^  c #6A385E",
"/  c #623261",
"(  c #683565",
")  c #7F3B69",
"_  c #4A4257",
"`  c #64576D",
"'  c #736C58",
"]  c #013A83",
"[  c #053F8C",
"{  c #0F3080",
"}  c #0B3B87",
"|  c #0D3E8D",
" . c #3E2284",
".. c #3B2F83",
"X. c #00418E",
"o. c #014391",
"O. c #06479A",
"+. c #04489B",
"@. c #0D4292",
"#. c #11489F",
"$. c #094DA4",
"%. c #0B4FA8",
"&. c #134BA5",
"*. c #1255B4",
"=. c #1759BF",
"-. c #165CC4",
";. c #1560CA",
":. c #1961CE",
">. c #451E82",
",. c #481D83",
"<. c #402184",
"1. c #47258B",
"2. c #4A2087",
"3. c #4C248C",
"4. c #4C2993",
"5. c #4F2E9A",
"6. c #473797",
"7. c #4E319D",
"8. c #502E9B",
"9. c #5A3E90",
"0. c #5235A4",
"q. c #553BAC",
"w. c #583EB1",
"e. c #5E4281",
"r. c #5842B5",
"t. c #5B45BB",
"y. c #6148C1",
"u. c #664AC8",
"i. c #694BCA",
"p. c #6D4ED0",
"a. c #714FD5",
"s. c #794BD6",
"d. c #7C4DD9",
"f. c #7451D9",
"g. c #7A53DE",
"h. c #7B54E1",
"j. c #30826F",
"k. c #3F9283",
"l. c #4B8992",
"z. c #5FBFAE",
"x. c #63CAB4",
"c. c #8D456D",
"v. c #90476E",
"b. c #964B70",
"n. c #9B4F72",
"m. c #94557B",
"M. c #9B5B7F",
"N. c #AD5B78",
"B. c #8E5680",
"V. c #996284",
"C. c #A15F81",
"Z. c #A66E8E",
"A. c #805DD5",
"S. c #824FE0",
"D. c #8559EA",
"F. c #8C5AF3",
"G. c #8F5DF8",
"H. c #905FF6",
"J. c #915EFA",
"K. c #8C65DF",
"L. c #9363F4",
"P. c #9560FF",
"I. c #9E68FF",
"U. c #A46EFF",
"Y. c #A477EA",
"T. c #A771FF",
"R. c #AF79FF",
"E. c #B57FFD",
"W. c #DB7C88",
"Q. c #AC9C4F",
"!. c #F1DB4A",
"~. c #AF93B3",
"^. c #B885F6",
"/. c #BC86FC",
"(. c #BF88FF",
"). c #EDB0B6",
"_. c #C68EFF",
"`. c #F1BDC1",
"'. c #E8C5CD",
"]. c #EFCED4",
"[. c #F3C3C7",
"{. c #FAD7D9",
"}. c #FBDDDE",
"|. c #FFE4E4",
" X c None",
/* pixels */
" X X X X X X X X X X X X X X X X X X X X X X X X X",
" X X X X X X X X X X X X X X X X X X X X X X X X X",
" X X X X X X X X X X X X X X X X X X X X X X X X X",
" X X X X X X X X X X X X X X X X X X X X X X X X X",
" X X X X X X X X X X X X X X X X X X X X X X X X X",
" X X X X X X X X X X X X X X X X X X X X X X X X X",
" X X X X X X X X X X X X X X X X X X X X X X X X X",
" X X X X X X X X X X X X X X X X X X X X X X X X X",
" X X X X X X X X X X X X X X X X X X X X X X X X X",
" X X X X X X X X Xp p p p  X X X X X X X X X X X X",
" X X X X X X Xp p n n p p  X X X X X X X X X X X X",
" X X X X X X Xp p G F p p  X X X X X X X X X X X X",
" X X X X X X Xp p P k.p z ,.,.,.,.,. X X X X X X X",
" X X X X X X Xp p l.z.p z ,.,.,.,.,. X X X X X X X",
" X X Xp p p p _ !.' B r.r.r.G.h.t.3.,. X X X X X X",
" X X Xp V L J H Q.` ..t.w.0.h.h.a.0.4.,.,. X X X X",
" X X Xp K x.j.D p 6.t.t.8.,.r.a.J.u.q.,.,. X X X X",
" X X Xp N J V C q.w.t.3.,.,.t.A._.H.s.,.,. X X X X",
" X X X Xj j A ..i.y.t.4.4.4.i.K._.I.S.,.,. X X X X",
" X X X X,.,.q.u.P.a.y.t.t.t.J.T._.U.S.,.,. X X X X",
" X X X Xl l q.y.p.h.D.Y.Y.Y.E.R.U.J.S.,.,. X X X X",
" X X Xs g x 0.t.t.h.H.^./._._.T.J.J.d.,.x s  X X X",
" X X Xs b t.t.t.t.t.t.t.g.J.J.J.J.i.q.,.l s  X X X",
" X X Xs v 7.r.t.t.t.t.t.i.f.g.f.d.y.q.,.l s  X X X",
" X X Xs l ,.q.t.t.t.t.t.t.t.y.t.t.t.q.,.l s  X X X",
" X X Xs s s q.w.,.0.t.t.0.,.w.t.t.3.,.,.l s  X X X",
" X X Xs s s 4.5.b 4.0.t.q.8.0.q.t.>.U ,.x s  X X X",
" X X Xs s s b U s U ,.t.t.t.,.5.t.x l ,.l s  X X X",
" X X Xs l U l l U x h 3.0.t.l c 3.h l ,.l s  X X X",
" X X Xs h b x c 4.c s ,.5.q.s l b l c ,.l s  X X X",
" X X Xs s s U 3.t.<.s ,.,.,.s s s U ,.,.l s  X X X",
" X X Xs s s U 3.t.4.U l c ,.U U U 0.8.h s s  X X X",
" X X X Xs s >.4.r.4.U d l U 2.,.,.w.q.s s  X X X X",
" X X X Xs s 0.w.>.l s 4 3 s >.,.,.w.0.g s  X X X X",
" X X XE Y s 1.4.l i 0 4 < 2 l c >.<.e.~.B.)  X X X",
" X X XQ T k U U g { X.5 5 5 g l >.h e.}.Z.)  X X X",
" X X X) n.W.~ f o.X.o.*.$.X.5 2 s < S W.n.)  X X X",
" X X X) C.).W 1 w o.$.$.+.X.5 < 3 , M N.c.)  X X X",
" X X X) Z.|.R + 5 @.*.X.X.X.5 4 4 4 n ) )  X X X X",
" X) ) '.}.|.V./ 4 &.:.4 @.*.X.+.*.9 n ) )  X X X X",
" X) ) ].{.`.M.( 4 #.-.4 y %.r X.%.| y , >  X X X X",
" X) ) ].[.W.b.( 4 @.*.4 w X.4 8 o.-.*.5 5  X X X X",
" X) ) m.m.v.^ ! ] X.O.4 5 6 4 8 X.O.%.-.t >  X X X",
" X X X) ) ) W M ] ] r 4 : : 4 6 q q u *.t >  X X X",
" X X X X X X4 4 4 4 4 4 $ X > % & & o 4 4 4  X X X",
" X X X X X X@ @ @ @ # 4 $ X O - ; * o 4 4 4  X X X",
" X X X X X XX X X X X  X X X* = I * &  X X X X X X",
" X X X X X XX X X . *  X X X* . & & &  X X X X X X",
" X X X X X XX X X . &  X X X& & & & &  X X X X X X",
" X X X X X X X X X X X X X X& & & & &  X X X X X X"
};
