/* XPM */
static char *tile05[] = {
/* columns rows colors chars-per-pixel */
"25 50 257 2",
"   c black",
".  c #1D0B07",
"X  c #12001E",
"o  c #1E0F10",
"O  c #0F0628",
"+  c #02162A",
"@  c #170920",
"#  c #1F0E28",
"$  c #160924",
"%  c #100C33",
"&  c #1F1E2F",
"*  c #1D1323",
"=  c #1D1D39",
"-  c #1C1534",
";  c #09351B",
":  c #0D2333",
">  c #192538",
",  c #210F00",
"<  c #251100",
"1  c #2C1400",
"2  c #311600",
"3  c #3F1C00",
"4  c #321711",
"5  c #301B1B",
"6  c #26162C",
"7  c #221A26",
"8  c #231A27",
"9  c #381C37",
"0  c #391536",
"q  c #382B1F",
"w  c #252028",
"e  c #2D252E",
"r  c #202030",
"t  c #2F2A3C",
"y  c #2E333D",
"u  c #342536",
"i  c #332A33",
"p  c gray22",
"a  c #3E323C",
"s  c #0B1441",
"d  c #101B59",
"f  c #1F1F67",
"g  c #072056",
"h  c #062158",
"j  c #0B2154",
"k  c #0C245C",
"l  c #142144",
"z  c #1F2C47",
"x  c #1C395D",
"c  c #052661",
"v  c #033377",
"b  c #1C296F",
"n  c #173B67",
"m  c #241F5B",
"M  c #28165F",
"N  c #2C0D62",
"B  c #261361",
"V  c #310F63",
"C  c #351664",
"Z  c #3A1665",
"A  c #38176F",
"S  c #3C196B",
"D  c #34126C",
"F  c #361774",
"G  c #351B75",
"H  c #381572",
"J  c #3D1B76",
"K  c #3B1C7B",
"L  c #23245A",
"P  c #28225F",
"I  c #232D5C",
"U  c #27305F",
"Y  c #323B5E",
"T  c #272769",
"R  c #262E7C",
"E  c #36206F",
"W  c #34217B",
"Q  c #343567",
"!  c #15533D",
"~  c #1F6B59",
"^  c #21455A",
"/  c #3A4355",
"(  c #33486C",
")  c #472000",
"_  c #493533",
"`  c #41197B",
"'  c #411B73",
"]  c #40274A",
"[  c #4A2A55",
"{  c #463944",
"}  c #493B46",
"|  c #433057",
" . c #532F56",
".. c #563256",
"X. c #5E3659",
"o. c #4D2768",
"O. c #4B217B",
"+. c #4B2877",
"@. c #433166",
"#. c #48357C",
"$. c #5E2E66",
"%. c #572779",
"&. c #5D3363",
"*. c #6E3B5E",
"=. c #603C50",
"-. c #78375B",
";. c #73355B",
":. c #6E3967",
">. c #6F3C6E",
",. c #693361",
"<. c #66307A",
"1. c #7F3B69",
"2. c #7B3F76",
"3. c #4E4F53",
"4. c #48495C",
"5. c #4F5359",
"6. c #4D5256",
"7. c #505151",
"8. c #574855",
"9. c #6D4374",
"0. c #645664",
"q. c #714D6C",
"w. c #734064",
"e. c #744075",
"r. c #795F6C",
"t. c #787577",
"y. c #013A82",
"u. c #1C2F82",
"i. c #3E2284",
"p. c #383D89",
"a. c #00408D",
"s. c #004492",
"d. c #0B4599",
"f. c #114397",
"g. c #0F4CA5",
"h. c #0F57B9",
"j. c #0D55B4",
"k. c #134AA4",
"l. c #264D8F",
"z. c #2A4784",
"x. c #1860CC",
"c. c #1B67D8",
"v. c #1964D3",
"b. c #491E83",
"n. c #411E82",
"m. c #442087",
"M. c #4F2180",
"N. c #4A248C",
"B. c #45268C",
"V. c #4D2993",
"C. c #4E2F9B",
"Z. c #4A2792",
"A. c #532B8A",
"S. c #522D9A",
"D. c #512591",
"F. c #573291",
"G. c #5C3593",
"H. c #5336A5",
"J. c #563AAB",
"K. c #5C30A5",
"L. c #583EB1",
"P. c #63389C",
"I. c #6034AB",
"U. c #673BB8",
"Y. c #52588D",
"T. c #5941B5",
"R. c #5B45BA",
"E. c #6D4E89",
"W. c #6C4399",
"Q. c #7F4D91",
"!. c #6D42A6",
"~. c #6343BE",
"^. c #7748B2",
"/. c #7243B2",
"(. c #6C4BCC",
"). c #6648C5",
"_. c #6F4ED3",
"`. c #6F53C8",
"'. c #7041C6",
"]. c #7848CF",
"[. c #714FD5",
"{. c #7A4DD7",
"}. c #7658CC",
"|. c #7059C1",
" X c #7B52DE",
".X c #7B54E1",
"XX c #5D936C",
"oX c #823D6A",
"OX c #85426D",
"+X c #874570",
"@X c #9B4F72",
"#X c #975276",
"$X c #866266",
"%X c #AD5B78",
"&X c #A8666F",
"*X c #B8637C",
"=X c #955488",
"-X c #9D6285",
";X c #9775B2",
":X c #A15F81",
">X c #A76F8F",
",X c #A97896",
"<X c #AA739C",
"1X c #B2718D",
"2X c #825DD0",
"3X c #8255E6",
"4X c #8356E9",
"5X c #865AE3",
"6X c #8659ED",
"7X c #8B57EF",
"8X c #8C5FED",
"9X c #8A5BF2",
"0X c #915EFA",
"qX c #9565CE",
"wX c #8960E2",
"eX c #9365EF",
"rX c #9560FF",
"tX c #9E68FE",
"yX c #9663F1",
"uX c #B67FFF",
"iX c #C96F82",
"pX c #CD7888",
"aX c #DB7C88",
"sX c #908993",
"dX c gray53",
"fX c #89AF9B",
"gX c #A98797",
"hX c #B596A5",
"jX c #BE9DC1",
"kX c #B885F6",
"lX c #87C096",
"zX c #ABC5BE",
"xX c #C28090",
"cX c #CA9D93",
"vX c #DF8993",
"bX c #CB90A4",
"nX c #CFA4B5",
"mX c #D0B8B2",
"MX c #E4969F",
"NX c #E1A0AA",
"BX c #EDB0B6",
"VX c #F7B6AF",
"CX c #C68EFF",
"ZX c #D0BFC9",
"AX c #D5B7C8",
"SX c #E7B8C0",
"DX c #F1BDC1",
"FX c #D5CDC9",
"GX c #CAE1CE",
"HX c #E4C7CE",
"JX c #F8CBCB",
"KX c #F8D0D2",
"LX c #FDD8D6",
"PX c #FBDADB",
"IX c #FFE4E4",
"UX c #FFFAFA",
"YX c None",
/* pixels */
"YXYXYXYXYXYXYXYXYXYXYXYXYXYXYXYXYXYXYXYXYXYXYXYXYX",
"YXYXYXYXYXYXYXYXYXYXYXYXYXYXYXYXYXYXYXYXYXYXYXYXYX",
"YXYXYXYXYXYXYXYXYXYXYXYXYXYXYXYXYXYXYXYXYXYXYXYXYX",
"YXYXYXYXYXYXYXYXYXYXYXYXYXYXYXYXYXYXYXYXYXYXYXYXYX",
"YXYXYXYXYXYXYXYXYXYXYXYXYXYXYXYXYXYXYXYXYXYXYXYXYX",
"YXYXYXYXYXYXYXYXYXYXYXYXYXYXYXYXYXYXYXYXYXYXYXYXYX",
"YXYXYXYXYXYXYXYXYXYXYXYXYXYXYXYXYXYXYXYXYXYXYXYXYX",
"YXYXYXYXYXYXYXYXYXYXYXYXYXYXYXYXYXYXYXYXYXYXYXYXYX",
"YXYXYXYXYXYXYXYXYXYXYXYXYXYXYXYXYXYXYXYXYXYXYXYXYX",
"YXYXYXYXYXYXYXYXYXYXYXYXm m m m YXYXYXYXYXYXYXYXYX",
"YXYXYXYXYXYXm m m m m m L L m m YXYXYXYXYXYXYXYXYX",
"YXYXYXYXYXYXm m m m m m ^ ~ L L YXYXYXYXYXYXYXYXYX",
"YXYXYXYXYXYXm L ^ P N M T ( E ' b.b.YXYXYXYXYXYXYX",
"YXYXYXYXYXYXL I ~ U N N H b.b.b.b.b.YXYXYXYXYXYXYX",
"YXYXYXYXYXYXN N B J b.T.T.R.R.T.R.N.b.b.b.YXYXYXYX",
"YXYXYXYXN N D H m.Z.C.H.H.H.R.).[.U.I.S.N.b.YXYXYX",
"YXYXYXYXN N ` D.R.R.R.b.b.b.R.[.0X0X7XR.V.b.YXYXYX",
"YXYXYXYXN N '..XR. X6XL.S.b.F n.S.).[.9XK.b.YXYXYX",
"YXYXYXN A A.{..X(.6X0XR.C.` C S O.H.~.7XK.b.YXYXYX",
"YXYXYXN G.CX}.).rXrXrXR.B.N ......O.V.R.S.b.YXYXYX",
"YXYXYXN G.CXeX8XkXwX_.C.+.[ r > = $.<.D.H.H.b.b.YX",
"YXYXYXN F.kXtXtXkX2XL.M.o.[ > : + w.2.b.J.L.b.b.YX",
"YXYXYXN i.R.9XtXCX^.b.1.z * fXXX; cXcXb.J.L.b.b.YX",
"YXYXYXN F S.(.2XCX!.' xXgXsXGXfX! mXSX<X!.S.b.b.YX",
"YXYXYXN D b.J.`.CXP.S VXJXIXUXzX~ FXPXVXQ.b.b.b.YX",
"YXYXYXYXN N ` S.rXC.S IXIXIXIXIXIXIXAXb.J.T.b.b.YX",
"YXYXYXYXN N H N..XZ.C hXFXIXIXIXIXjX;XS.).(.b.b.YX",
"YXYXYXYXYXYXN H R.i.N ..gXIXIXIXIXW.D.R.4X7Xb.b.YX",
"YXYXYXYXN N J N.R.i.N O.#XvXw.E.|.4XyXkX/.D.b.b.YX",
"YXYXYXYXN N m.S.J.W B W 9.&XY #.R..X5XqXP.b.YXYXYX",
"YXYXYXYXN N H.L.b.B g g z p d R R.R.H.N N YXYXYXYX",
"YXYXYXN b.{..X{.b.u.y.y.x p 4.Y b b b N N YXYXYXYX",
"YXYXYXN N.9X.X].M.p.l.s.n y 7./ k h d N N YXYXYXYX",
"YXYXYXN K R.K Z oX*XpXs.v g 3.( s.c g YXYXYXYXYXYX",
"YXYXYXN H C.%.2.nX1X#Xs.d.k.6.4.Q k L 1.1.YXYXYXYX",
"YXYXYXD A A.2.-XPX,X>.s.j.v.5.8.X.I Q +XoX1.YXYXYX",
"YXYXYX1.>XIXIXKXvXY.s.c.j.s.6.$XaXKXIXIX,X1.YXYXYX",
"YXYXYX1.:XBXPXHXq.z.s.c.g.v t =.%XNXDXIX>X1.YXYXYX",
"YXYXYX1.@XaXJXZXg v s.c.f.g O 0 oXiXMXIX>X1.YXYXYX",
"YXYXYX1.oXoX+X9.a.h.x.k l 8 X % k :.oX+XoX1.YXYXYX",
"YXYXYXYX1.1.&.@.v d.k.l = w 6 - % ,.1.1.1.YXYXYXYX",
"YXYXYXYXYXYXh h g h g 8 w w { u X X YXYXYXYXYXYXYX",
"YXYXYXYXYXYXO $ r r r @ * 7 { u X X YXYXYXYXYXYXYX",
"YXYXYXYXX X X * e 8 8 X o 7 a u # t.dXYXYXYXYXYXYX",
"YXYXYXYXX X * e } 6 X YXO X 8 i } t.dXYXYXYXYXYXYX",
"YXYXYXYXX X o 5 *.0.0.YXX X @ 9 *._ q < , , YXYXYX",
"YXYXYXYXX X . 4 -.r.t.YXX X X 0 ;.4 < < < . YXYXYX",
"YXYXYXYXYXYX. 1 ) 1 < YXYXYX. < . 3 ) ) 1 < YXYXYX",
"YXYXYXYXYXYX< < 2 < < , , YX< , , 1 2 2 < < YXYXYX",
"YXYXYXYXYXYXYX. . < , , < YXYX. , , , , , YXYXYXYX"
};
