/* XPM */
static char *tile011[] = {
/* columns rows colors chars-per-pixel */
"25 50 173 2",
"   c black",
".  c #1A080C",
"X  c #170513",
"o  c #12001E",
"O  c #17151E",
"+  c #18141A",
"@  c #0E0C33",
"#  c #0C103A",
"$  c #141729",
"%  c #210F00",
"&  c #251100",
"*  c #2B1300",
"=  c #311600",
"-  c #081B4E",
";  c #071E53",
":  c #0A1E57",
">  c #0D1C58",
",  c #190E4A",
"<  c #14185A",
"1  c #19165C",
"2  c #062056",
"3  c #06235B",
"4  c #1A2659",
"5  c #062661",
"6  c #042C6A",
"7  c #0B276A",
"8  c #092A68",
"9  c #0F2E7E",
"0  c #033173",
"q  c #03357B",
"w  c #02387F",
"e  c #093276",
"r  c #0A357B",
"t  c #1E2479",
"y  c #241F5B",
"u  c #35175F",
"i  c #270F61",
"p  c #2C0D63",
"a  c #251060",
"s  c #2F1068",
"d  c #2D1E65",
"f  c #34126C",
"g  c #361E6F",
"h  c #391A6B",
"j  c #371572",
"k  c #3C1675",
"l  c #391875",
"z  c #3E1A7A",
"x  c #24255A",
"c  c #26315E",
"v  c #342C5C",
"b  c #272960",
"n  c #2A2B65",
"m  c #2B3365",
"M  c #2B3069",
"N  c #2F3F6B",
"B  c #30266F",
"V  c #3C3762",
"C  c #1F5C59",
"Z  c #1F6659",
"A  c #204E59",
"S  c #3C4D58",
"D  c #284462",
"F  c #375476",
"G  c #3B5F7C",
"H  c #366C76",
"J  c #441F38",
"K  c #472000",
"L  c #421A7C",
"P  c #46245A",
"I  c #52305D",
"U  c #583257",
"Y  c #40227A",
"T  c #453561",
"R  c #60345A",
"E  c #693069",
"W  c #613D71",
"Q  c #7F3B69",
"!  c #4A4257",
"~  c #444F78",
"^  c #6A4077",
"/  c #64576D",
"(  c #66587E",
")  c #736C58",
"_  c #023981",
"`  c #043D88",
"'  c #0B3B87",
"]  c #3E2284",
"[  c #3B2F83",
"{  c #00418E",
"}  c #0D408E",
"|  c #004391",
" . c #064A9F",
".. c #0B4597",
"X. c #084CA2",
"o. c #0B4FA8",
"O. c #0D52AD",
"+. c #1156B5",
"@. c #451E82",
"#. c #481D83",
"$. c #402184",
"%. c #4A2087",
"&. c #4C248C",
"*. c #4D2993",
"=. c #4F2E9A",
"-. c #473797",
";. c #4E319D",
":. c #502E9B",
">. c #5235A4",
",. c #5038A5",
"<. c #553BAC",
"1. c #583EB1",
"2. c #5842B5",
"3. c #5B45BB",
"4. c #604283",
"5. c #6148C1",
"6. c #664AC8",
"7. c #694BCA",
"8. c #6D4ED0",
"9. c #714FD5",
"0. c #794BD6",
"q. c #7C4DD9",
"w. c #7451D9",
"e. c #7A53DE",
"r. c #7B54E1",
"t. c #30826F",
"y. c #3F9283",
"u. c #4B8992",
"i. c #5FBFAE",
"p. c #63CAB4",
"a. c #823D6A",
"s. c #8A456C",
"d. c #9B4F72",
"f. c #975075",
"g. c #AD5B78",
"h. c #9F6587",
"j. c #A15F81",
"k. c #A66E8E",
"l. c #A97291",
"z. c #805DD5",
"x. c #824FE0",
"c. c #8559EA",
"v. c #8C5AF3",
"b. c #8F5DF8",
"n. c #905FF6",
"m. c #915EFA",
"M. c #8C65DF",
"N. c #9363F4",
"B. c #9560FF",
"V. c #9E68FF",
"C. c #A46EFF",
"Z. c #A477EA",
"A. c #A771FF",
"S. c #AF79FF",
"D. c #B57FFD",
"F. c #C46B80",
"G. c #DB7C88",
"H. c #AC9C4F",
"J. c #F1DB4A",
"K. c #B885F6",
"L. c #BC86FC",
"P. c #BF88FF",
"I. c #C89BAF",
"U. c #D6A1AF",
"Y. c #D3A9B9",
"T. c #E18F99",
"R. c #EDB0B6",
"E. c #C68EFF",
"W. c #EFCED4",
"Q. c #F5C9CC",
"!. c #FCDDDE",
"~. c #FFE4E4",
"^. c None",
/* pixels */
"^.^.^.^.^.^.^.^.^.^.^.^.^.^.^.^.^.^.^.^.^.^.^.^.^.",
"^.^.^.^.^.^.^.^.^.^.^.^.^.^.^.^.^.^.^.^.^.^.^.^.^.",
"^.^.^.^.^.^.^.^.^.^.^.^.^.^.^.^.^.^.^.^.^.^.^.^.^.",
"^.^.^.^.^.^.^.^.^.^.^.^.^.^.^.^.^.^.^.^.^.^.^.^.^.",
"^.^.^.^.^.^.^.^.^.^.^.^.^.^.^.^.^.^.^.^.^.^.^.^.^.",
"^.^.^.^.^.^.^.^.^.^.^.^.^.^.^.^.^.^.^.^.^.^.^.^.^.",
"^.^.^.^.^.^.^.^.^.^.^.^.^.^.^.^.^.^.^.^.^.^.^.^.^.",
"^.^.^.^.^.^.^.^.^.^.^.^.^.^.^.^.^.^.^.^.^.^.^.^.^.",
"^.^.^.^.^.^.^.^.^.^.^.^.^.^.^.^.^.^.^.^.^.^.^.^.^.",
"^.^.^.^.^.^.^.^.^.y y y y ^.^.^.^.^.^.^.^.^.^.^.^.",
"^.^.^.^.^.^.^.y y x x y y ^.^.^.^.^.^.^.^.^.^.^.^.",
"^.^.^.^.^.^.^.y y A Z y y ^.^.^.^.^.^.^.^.^.^.^.^.",
"^.^.^.^.^.^.^.y y H y.y g #.#.#.#.#.^.^.^.^.^.^.^.",
"^.^.^.^.^.^.^.y y u.i.y g #.#.#.#.#.^.^.^.^.^.^.^.",
"^.^.^.y y y y ! J.) n 2.2.3.v.r.3.&.#.^.^.^.^.^.^.",
"^.^.^.y m G D S H./ [ 3.1.>.r.r.9.>.*.#.#.^.^.^.^.",
"^.^.^.y F p.t.C x -.3.3.:.%.2.9.m.6.<.#.#.^.^.^.^.",
"^.^.^.y n D c M <.2.3.&.&.%.2.e.E.n.0.#.#.^.^.^.^.",
"^.^.^.^.d d B [ 7.5.3.*.*.*.7.M.E.V.x.#.#.^.^.^.^.",
"^.^.^.^.#.#.1.6.B.9.3.3.2.3.b.A.E.C.x.#.#.^.^.^.^.",
"^.^.^.^.f f ,.5.8.e.c.Z.Z.Z.K.S.C.m.x.#.#.^.^.^.^.",
"^.^.^.p s j ,.3.3.e.N.K.L.P.L.S.m.m.q.#.j p ^.^.^.",
"^.^.^.p z 3.3.3.3.3.3.3.e.B.m.m.m.7.<.#.f p ^.^.^.",
"^.^.^.p l :.2.3.3.3.3.3.7.q.e.w.q.5.<.#.f p ^.^.^.",
"^.^.^.p f #.<.3.3.3.3.3.3.3.3.3.3.3.<.#.f p ^.^.^.",
"^.^.^.p p p >.1.#.>.3.3.>.#.3.3.3.&.#.#.f p ^.^.^.",
"^.^.^.p p p *.;.k *.>.3.<.:.>.<.3.#.L #.f p ^.^.^.",
"^.^.^.p p p L L p L #.3.3.3.#.:.3.j f #.f p ^.^.^.",
"^.^.^.p f L j f L f f &.>.3.f k &.s f #.f p ^.^.^.",
"^.^.^.p f k f k *.k p #.:.<.p f z j f #.f p ^.^.^.",
"^.^.^.p p p L &.3.$.p #.#.#.p p p L #.#.f p ^.^.^.",
"^.^.^.p p p L *.3.*.L f k #.L L L >.;.f p p ^.^.^.",
"^.^.^.^.p p @.*.1.&.z i j L #.#.#.1.>.p p ^.^.^.^.",
"^.^.^.^.p p ,.1.@.j i ; 1 p @.#.#.2.>.p p ^.^.^.^.",
"^.^.^.^.p p ,.<.f t 9 ; : < j k #.$.z P P ^.^.^.^.",
"^.^.^.Q E h ,.,.p ' ` : : : i f L s d U U ^.^.^.^.",
"^.^.^.Q k.~.4.a ; q | | 0 : ; > p : x Q Q ^.^.^.^.",
"^.^.^.Q k.R.I , 0 ..X.| _ 0 0 7 < : v g.s.Q ^.^.^.",
"^.^.^.Q d.G.J @ | o.+.` | | | q : : V G.d.a.^.^.^.",
"^.^.^.Q Q a.x : | o.+.3 ' +.| | | 3 ~ !.k.Q ^.^.^.",
"^.^.^.^.Q Q x 5 X.....; w o.q ` X.M ( ~.I.l.Q Q ^.",
"^.^.^.^.^.^.; 8 +.e ; ; 0 | 3 r +.^ k.!.~.W.Q Q ^.",
"^.^.^.^.; 3 q w 8 q _ ; 3 3 ; r +.W f.T.Q.W.Q Q ^.",
"^.^.^.^.; ; q w : 0 _ : - - : e O.W s.F.U.Y.Q Q ^.",
"^.^.^.^.3 ; ; ; ; ; 3 ; # o ; 6 | T R Q Q Q ^.^.^.",
"^.^.^.^.; ; $ O O + O ; # o ; 3 6 4 v a.Q Q ^.^.^.",
"^.^.^.^.^.^.. & & & % ^.^.^.; - - - ; ^.^.^.^.^.^.",
"^.^.^.^.^.^.& * K * % ^.^.^.o o o o o ^.^.^.^.^.^.",
"^.^.^.^.^.^.& & = & % ^.^.^.. X o o o ^.^.^.^.^.^.",
"^.^.^.^.^.^.% % % % % ^.^.^.& . o o o ^.^.^.^.^.^."
};
